<svg width="188" height="60" viewBox="0 0 188 60" fill="none" xmlns="http://www.w3.org/2000/svg">
<path d="M25.9517 21.0488C23.2329 21.0488 21.2326 22.9251 18.8603 25.7441L0.755905 45.9534C0.42131 46.3273 0.164365 46.764 0 47.2381H7.76819L23.7527 29.9016V47.2381H30.6858V21.0488H25.9517Z" fill="#183F7C"/>
<path d="M46.5952 21.0576H34.6875V47.2379H41.401V38.3732H46.5967C52.0166 38.3732 55.6572 34.9283 55.6572 29.8028C55.6557 24.7385 51.8448 21.0576 46.5952 21.0576ZM45.2508 32.7517H41.401V26.6612H45.2493C47.6664 26.6612 48.9451 27.7069 48.9451 29.7012C48.9436 31.7299 47.7007 32.7577 45.2478 32.7577L45.2508 32.7517Z" fill="#183F7C"/>
<path d="M59.6562 47.2382H66.6924V21.043H59.6562V47.2382Z" fill="#183F7C"/>
<path d="M85.3001 41.2818C81.0769 41.2818 77.6529 38.4524 77.6529 33.8124C77.6529 29.2874 81.0769 26.3429 85.3001 26.3429C86.4025 26.3378 87.4932 26.5695 88.4983 27.0224C89.5035 27.4752 90.3996 28.1386 91.1262 28.9677L96.0919 24.8222C93.4432 22.0271 89.5188 20.4062 85.1343 20.4062C77.1569 20.4062 70.6914 25.7588 70.6914 33.8228C70.6914 41.8868 77.1569 47.2379 85.1343 47.2379C89.592 47.2379 93.5747 45.5259 96.2234 42.6382L91.195 38.5659C90.4692 39.4203 89.5657 40.106 88.5476 40.575C87.5294 41.0441 86.4211 41.2853 85.3001 41.2818Z" fill="#183F7C"/>
<path d="M117.044 36.6596C117.044 39.858 114.969 41.2742 112.114 41.2742C109.259 41.2742 107.184 39.858 107.184 36.6596V20.8887H100.223V37.1974C100.223 43.4239 103.39 47.4185 110.883 47.2318C113.745 47.1601 115.944 46.0531 117.549 44.3501V46.7403H124.001V20.8887H117.044V36.6596Z" fill="#183F7C"/>
<path d="M134.452 12.7617H128V47.2376H134.452V12.7617Z" fill="#183F7C"/>
<path d="M155.276 36.6533C155.276 39.8517 153.199 41.2679 150.346 41.2679C147.493 41.2679 145.416 39.8517 145.416 36.6533V20.8809H138.453V37.1956C138.453 43.4221 141.62 47.4182 149.113 47.2315C151.976 47.1598 154.175 46.0528 155.781 44.3483V46.7385H162.24V20.8809H155.283L155.276 36.6533Z" fill="#183F7C"/>
<path d="M178.961 30.6514C176.52 29.8701 174.396 29.2859 174.396 27.674C174.396 26.3296 175.567 25.6468 177.179 25.6468C178.718 25.6468 180.764 26.2578 182.557 27.2587C183.069 27.5755 182.62 27.3021 183.163 27.6292L186.301 23.0475C185.973 22.8219 185.891 22.7891 185.58 22.5993C183.018 21.1822 180.143 20.4273 177.215 20.4033C171.526 20.4033 167.473 23.3313 167.473 28.3119C167.473 33.6899 172.086 35.1733 175.945 36.467C178.362 37.2483 180.071 37.8115 180.071 39.4219C180.071 40.9352 178.851 41.7419 176.799 41.7419C174.529 41.7419 171.965 40.7156 170.037 39.398C169.606 39.1232 169.62 39.1351 169.281 38.9021L166.242 43.8319C166.464 44.0624 166.715 44.2632 166.989 44.4294C170.029 46.2528 173.504 47.223 177.049 47.2379C183.202 47.2379 187.085 44.1605 187.085 38.9125C187.068 33.5824 182.523 31.8226 178.961 30.6514Z" fill="#183F7C"/>
</svg>
