<?xml version="1.0" encoding="UTF-8"?>
<svg xmlns="http://www.w3.org/2000/svg" xmlns:xlink="http://www.w3.org/1999/xlink" width="50px" height="px" viewBox="0 0 50 50" version="1.1">
<g id="surface1">
<path style=" stroke:none;fill-rule:nonzero;fill:rgb(92.941176%,92.941176%,92.941176%);fill-opacity:1;" d="M 20.136719 14.226562 C 20.410156 14.355469 20.410156 14.355469 20.507812 14.550781 C 20.507812 14.839844 20.507812 15.132812 20.507812 15.429688 C 21.828125 15.429688 23.148438 15.429688 24.511719 15.429688 C 24.511719 15.074219 24.511719 14.71875 24.511719 14.355469 C 24.78125 14.246094 24.78125 14.246094 25.097656 14.160156 C 25.226562 14.226562 25.355469 14.289062 25.488281 14.355469 C 25.488281 14.710938 25.488281 15.0625 25.488281 15.429688 C 26.808594 15.429688 28.132812 15.429688 29.492188 15.429688 C 29.492188 15.140625 29.492188 14.851562 29.492188 14.550781 C 29.6875 14.257812 29.6875 14.257812 29.917969 14.171875 C 30.175781 14.160156 30.175781 14.160156 30.386719 14.273438 C 30.566406 14.453125 30.566406 14.453125 30.605469 14.695312 C 30.601562 14.78125 30.59375 14.871094 30.589844 14.960938 C 30.585938 15.046875 30.582031 15.136719 30.582031 15.226562 C 30.574219 15.292969 30.570312 15.359375 30.566406 15.429688 C 30.636719 15.425781 30.710938 15.425781 30.78125 15.421875 C 31.105469 15.414062 31.433594 15.410156 31.757812 15.40625 C 31.867188 15.402344 31.980469 15.398438 32.097656 15.394531 C 32.207031 15.394531 32.3125 15.394531 32.425781 15.390625 C 32.527344 15.390625 32.625 15.386719 32.726562 15.386719 C 33.082031 15.441406 33.242188 15.574219 33.496094 15.820312 C 33.640625 16.109375 33.605469 16.371094 33.605469 16.691406 C 33.605469 16.761719 33.605469 16.832031 33.605469 16.902344 C 33.605469 17.132812 33.605469 17.363281 33.601562 17.59375 C 33.601562 17.753906 33.601562 17.914062 33.601562 18.074219 C 33.601562 18.492188 33.601562 18.914062 33.601562 19.332031 C 33.597656 19.761719 33.597656 20.191406 33.597656 20.621094 C 33.597656 21.460938 33.597656 22.304688 33.59375 23.144531 C 33.5 23.1875 33.5 23.1875 33.402344 23.230469 C 33.335938 23.265625 33.269531 23.300781 33.203125 23.339844 C 33.136719 23.554688 33.136719 23.554688 33.128906 23.792969 C 33.125 23.871094 33.117188 23.949219 33.113281 24.035156 C 33.109375 24.09375 33.109375 24.15625 33.105469 24.21875 C 33.167969 24.234375 33.230469 24.246094 33.292969 24.261719 C 33.496094 24.316406 33.496094 24.316406 33.59375 24.414062 C 33.625 24.695312 33.625 24.695312 33.59375 25 C 33.5 25.066406 33.5 25.066406 33.40625 25.132812 C 33.1875 25.273438 33.1875 25.273438 33.15625 25.484375 C 33.132812 25.679688 33.117188 25.878906 33.105469 26.074219 C 33.199219 26.09375 33.199219 26.09375 33.292969 26.109375 C 33.394531 26.140625 33.394531 26.140625 33.496094 26.171875 C 33.65625 26.488281 33.609375 26.839844 33.609375 27.1875 C 33.613281 27.273438 33.613281 27.359375 33.613281 27.445312 C 33.613281 27.726562 33.617188 28.007812 33.617188 28.292969 C 33.617188 28.386719 33.617188 28.484375 33.617188 28.582031 C 33.621094 29.09375 33.621094 29.601562 33.621094 30.109375 C 33.625 30.636719 33.628906 31.164062 33.632812 31.6875 C 33.632812 32.09375 33.632812 32.496094 33.632812 32.902344 C 33.636719 33.09375 33.636719 33.289062 33.636719 33.484375 C 33.640625 33.753906 33.640625 34.027344 33.640625 34.296875 C 33.640625 34.417969 33.640625 34.417969 33.644531 34.539062 C 33.640625 34.910156 33.617188 35.113281 33.433594 35.441406 C 33 35.824219 32.53125 35.863281 31.972656 35.867188 C 31.84375 35.867188 31.71875 35.867188 31.585938 35.867188 C 31.445312 35.867188 31.304688 35.867188 31.164062 35.867188 C 31.015625 35.867188 30.863281 35.867188 30.714844 35.867188 C 30.3125 35.871094 29.90625 35.871094 29.503906 35.871094 C 29.167969 35.871094 28.828125 35.871094 28.492188 35.871094 C 27.695312 35.871094 26.898438 35.871094 26.101562 35.871094 C 25.28125 35.871094 24.460938 35.871094 23.640625 35.875 C 22.933594 35.875 22.226562 35.875 21.523438 35.875 C 21.101562 35.875 20.679688 35.875 20.257812 35.875 C 19.863281 35.878906 19.464844 35.878906 19.070312 35.875 C 18.925781 35.875 18.78125 35.875 18.636719 35.878906 C 17.042969 35.886719 17.042969 35.886719 16.539062 35.390625 C 16.351562 35.0625 16.367188 34.753906 16.367188 34.386719 C 16.367188 34.308594 16.367188 34.230469 16.367188 34.148438 C 16.367188 33.886719 16.367188 33.625 16.367188 33.363281 C 16.367188 33.175781 16.367188 32.988281 16.363281 32.800781 C 16.363281 32.289062 16.363281 31.777344 16.363281 31.269531 C 16.363281 30.839844 16.363281 30.414062 16.363281 29.988281 C 16.363281 28.984375 16.363281 27.980469 16.363281 26.976562 C 16.363281 25.9375 16.363281 24.902344 16.359375 23.863281 C 16.359375 22.976562 16.355469 22.085938 16.359375 21.195312 C 16.359375 20.664062 16.359375 20.132812 16.355469 19.601562 C 16.355469 19.101562 16.355469 18.601562 16.355469 18.101562 C 16.355469 17.917969 16.355469 17.734375 16.355469 17.550781 C 16.355469 17.300781 16.355469 17.046875 16.355469 16.796875 C 16.355469 16.726562 16.355469 16.652344 16.355469 16.578125 C 16.359375 16.101562 16.457031 15.859375 16.796875 15.527344 C 17.058594 15.398438 17.253906 15.417969 17.546875 15.421875 C 17.65625 15.421875 17.765625 15.421875 17.878906 15.421875 C 17.992188 15.421875 18.105469 15.421875 18.226562 15.421875 C 18.339844 15.425781 18.457031 15.425781 18.574219 15.425781 C 18.863281 15.425781 19.148438 15.425781 19.433594 15.429688 C 19.429688 15.363281 19.425781 15.296875 19.417969 15.226562 C 19.414062 15.09375 19.414062 15.09375 19.410156 14.960938 C 19.40625 14.871094 19.398438 14.785156 19.394531 14.695312 C 19.433594 14.453125 19.433594 14.453125 19.609375 14.269531 C 19.824219 14.160156 19.824219 14.160156 20.136719 14.226562 Z M 20.136719 14.226562 "/>
<path style=" stroke:none;fill-rule:nonzero;fill:rgb(44.313725%,74.901961%,89.803922%);fill-opacity:1;" d="M 44.53125 17.125 C 44.921875 17.445312 45.140625 17.890625 45.378906 18.328125 C 45.527344 18.589844 45.679688 18.851562 45.832031 19.113281 C 46.113281 19.601562 46.398438 20.089844 46.679688 20.582031 C 46.96875 21.085938 47.261719 21.59375 47.554688 22.097656 C 47.738281 22.417969 47.921875 22.738281 48.105469 23.058594 C 48.304688 23.410156 48.511719 23.757812 48.726562 24.101562 C 49.445312 25.285156 49.445312 25.285156 49.371094 26.046875 C 49.246094 26.550781 48.96875 26.886719 48.539062 27.167969 C 48.097656 27.34375 47.597656 27.285156 47.132812 27.269531 C 47.023438 27.269531 46.914062 27.265625 46.800781 27.265625 C 46.53125 27.261719 46.265625 27.253906 45.996094 27.246094 C 45.992188 27.324219 45.988281 27.402344 45.984375 27.480469 C 45.933594 28.253906 45.820312 28.988281 45.640625 29.742188 C 45.617188 29.851562 45.589844 29.964844 45.5625 30.078125 C 44.945312 32.601562 43.890625 34.988281 42.382812 37.109375 C 42.34375 37.164062 42.304688 37.21875 42.265625 37.277344 C 41.824219 37.898438 41.347656 38.476562 40.832031 39.035156 C 40.648438 39.230469 40.480469 39.433594 40.308594 39.636719 C 39.457031 40.609375 38.445312 41.433594 37.402344 42.1875 C 37.347656 42.226562 37.296875 42.265625 37.238281 42.304688 C 32.882812 45.445312 27.210938 46.746094 21.90625 45.976562 C 21.601562 45.925781 21.296875 45.867188 20.996094 45.800781 C 20.914062 45.785156 20.832031 45.765625 20.746094 45.75 C 16.21875 44.816406 11.332031 42.289062 8.609375 38.414062 C 8.496094 38.183594 8.496094 38.183594 8.574219 37.859375 C 8.613281 37.773438 8.652344 37.6875 8.691406 37.597656 C 8.78125 37.585938 8.867188 37.574219 8.960938 37.5625 C 9.652344 37.425781 10.035156 36.980469 10.523438 36.5 C 10.636719 36.390625 10.636719 36.390625 10.757812 36.277344 C 10.832031 36.203125 10.902344 36.132812 10.980469 36.058594 C 11.078125 35.960938 11.078125 35.960938 11.183594 35.859375 C 11.371094 35.578125 11.339844 35.390625 11.328125 35.058594 C 11.492188 34.820312 11.492188 34.820312 11.71875 34.667969 C 12.125 34.699219 12.304688 34.816406 12.574219 35.113281 C 12.636719 35.1875 12.703125 35.257812 12.773438 35.332031 C 12.839844 35.40625 12.90625 35.480469 12.976562 35.558594 C 13.109375 35.707031 13.242188 35.851562 13.378906 36 C 13.445312 36.070312 13.507812 36.144531 13.578125 36.21875 C 15.824219 38.652344 18.96875 40.191406 22.207031 40.789062 C 22.488281 40.84375 22.714844 40.890625 22.949219 41.058594 C 23.046875 41.210938 23.046875 41.210938 23.046875 41.503906 C 23.335938 41.503906 23.625 41.503906 23.925781 41.503906 C 23.988281 41.375 24.054688 41.246094 24.121094 41.113281 C 24.683594 41.101562 24.683594 41.101562 24.902344 41.210938 C 24.933594 41.308594 24.964844 41.40625 25 41.503906 C 25.257812 41.503906 25.515625 41.503906 25.78125 41.503906 C 25.804688 41.441406 25.832031 41.378906 25.855469 41.316406 C 25.976562 41.113281 25.976562 41.113281 26.324219 41.007812 C 26.5 40.976562 26.679688 40.945312 26.855469 40.917969 C 31.253906 40.203125 35.277344 38.148438 37.9375 34.46875 C 38.601562 33.511719 39.167969 32.507812 39.648438 31.445312 C 39.675781 31.386719 39.703125 31.324219 39.730469 31.265625 C 40.304688 29.976562 40.621094 28.617188 40.917969 27.246094 C 40.828125 27.25 40.828125 27.25 40.738281 27.253906 C 40.46875 27.261719 40.199219 27.265625 39.929688 27.269531 C 39.835938 27.273438 39.742188 27.277344 39.648438 27.28125 C 39.074219 27.289062 38.734375 27.25 38.28125 26.855469 C 37.980469 26.53125 37.851562 26.242188 37.804688 25.804688 C 37.839844 25.003906 38.308594 24.359375 38.714844 23.691406 C 38.929688 23.332031 39.140625 22.96875 39.351562 22.605469 C 39.523438 22.308594 39.695312 22.011719 39.871094 21.71875 C 40.1875 21.175781 40.5 20.632812 40.8125 20.089844 C 41.054688 19.667969 41.300781 19.246094 41.542969 18.824219 C 41.675781 18.59375 41.808594 18.359375 41.9375 18.125 C 42.484375 17.15625 42.484375 17.15625 43.074219 16.9375 C 43.605469 16.816406 44.054688 16.855469 44.53125 17.125 Z M 44.53125 17.125 "/>
<path style=" stroke:none;fill-rule:nonzero;fill:rgb(44.313725%,74.901961%,89.803922%);fill-opacity:1;" d="M 29.003906 4.199219 C 29.085938 4.214844 29.167969 4.234375 29.253906 4.25 C 33.710938 5.167969 38.785156 7.722656 41.40625 11.621094 C 41.492188 11.871094 41.515625 11.96875 41.441406 12.226562 C 41.308594 12.402344 41.308594 12.402344 41.078125 12.46875 C 40.992188 12.480469 40.90625 12.488281 40.820312 12.5 C 40.253906 12.582031 39.914062 13.058594 39.527344 13.445312 C 39.402344 13.5625 39.402344 13.5625 39.277344 13.683594 C 39.199219 13.761719 39.121094 13.835938 39.042969 13.917969 C 38.972656 13.988281 38.898438 14.058594 38.828125 14.128906 C 38.628906 14.417969 38.65625 14.597656 38.671875 14.941406 C 38.511719 15.179688 38.511719 15.179688 38.28125 15.332031 C 37.921875 15.320312 37.75 15.289062 37.492188 15.035156 C 37.425781 14.949219 37.363281 14.859375 37.296875 14.769531 C 34.984375 11.78125 31.484375 9.910156 27.800781 9.214844 C 27.519531 9.160156 27.289062 9.113281 27.050781 8.941406 C 26.953125 8.789062 26.953125 8.789062 26.953125 8.496094 C 26.664062 8.496094 26.375 8.496094 26.074219 8.496094 C 26.007812 8.625 25.945312 8.753906 25.878906 8.886719 C 25.652344 8.886719 25.429688 8.886719 25.195312 8.886719 C 25.097656 8.644531 25.097656 8.644531 25 8.398438 C 24.601562 8.414062 24.601562 8.414062 24.21875 8.496094 C 24.152344 8.625 24.085938 8.753906 24.023438 8.886719 C 23.726562 8.976562 23.449219 9.03125 23.144531 9.082031 C 18.746094 9.796875 14.722656 11.855469 12.0625 15.53125 C 11.398438 16.488281 10.832031 17.492188 10.351562 18.554688 C 10.324219 18.613281 10.296875 18.675781 10.269531 18.734375 C 9.695312 20.023438 9.378906 21.382812 9.082031 22.753906 C 9.140625 22.75 9.199219 22.75 9.261719 22.746094 C 9.53125 22.738281 9.800781 22.734375 10.070312 22.730469 C 10.164062 22.726562 10.257812 22.722656 10.351562 22.71875 C 10.925781 22.710938 11.265625 22.75 11.71875 23.144531 C 12.019531 23.46875 12.148438 23.757812 12.195312 24.195312 C 12.160156 24.996094 11.691406 25.640625 11.285156 26.308594 C 11.070312 26.667969 10.859375 27.03125 10.648438 27.394531 C 10.476562 27.691406 10.304688 27.988281 10.128906 28.28125 C 9.8125 28.824219 9.5 29.367188 9.1875 29.910156 C 8.945312 30.332031 8.699219 30.753906 8.457031 31.175781 C 8.324219 31.40625 8.191406 31.640625 8.0625 31.875 C 7.515625 32.84375 7.515625 32.84375 6.925781 33.0625 C 6.394531 33.183594 5.945312 33.144531 5.46875 32.875 C 5.078125 32.554688 4.859375 32.109375 4.621094 31.671875 C 4.472656 31.410156 4.320312 31.148438 4.167969 30.886719 C 3.886719 30.398438 3.601562 29.910156 3.320312 29.417969 C 3.03125 28.914062 2.738281 28.40625 2.445312 27.902344 C 2.261719 27.582031 2.078125 27.261719 1.894531 26.941406 C 1.695312 26.589844 1.488281 26.242188 1.273438 25.898438 C 0.847656 25.195312 0.492188 24.582031 0.683594 23.730469 C 0.871094 23.269531 1.214844 22.976562 1.660156 22.753906 C 1.835938 22.746094 2.015625 22.742188 2.191406 22.746094 C 2.347656 22.746094 2.347656 22.746094 2.511719 22.746094 C 2.621094 22.746094 2.730469 22.746094 2.84375 22.746094 C 2.957031 22.75 3.066406 22.75 3.179688 22.75 C 3.453125 22.75 3.730469 22.75 4.003906 22.753906 C 4.011719 22.636719 4.011719 22.636719 4.015625 22.519531 C 4.066406 21.746094 4.179688 21.011719 4.359375 20.257812 C 4.382812 20.148438 4.410156 20.035156 4.4375 19.921875 C 5.175781 16.90625 6.539062 13.96875 8.59375 11.621094 C 8.691406 11.507812 8.785156 11.394531 8.882812 11.28125 C 9.722656 10.28125 10.597656 9.410156 11.621094 8.59375 C 11.699219 8.53125 11.777344 8.464844 11.855469 8.398438 C 14.480469 6.230469 17.667969 4.855469 20.996094 4.199219 C 21.070312 4.183594 21.144531 4.167969 21.222656 4.152344 C 23.667969 3.640625 26.5625 3.671875 29.003906 4.199219 Z M 29.003906 4.199219 "/>
<path style=" stroke:none;fill-rule:nonzero;fill:rgb(0%,0%,0%);fill-opacity:1;" d="M 20.136719 14.226562 C 20.410156 14.355469 20.410156 14.355469 20.507812 14.550781 C 20.507812 14.839844 20.507812 15.132812 20.507812 15.429688 C 21.828125 15.429688 23.148438 15.429688 24.511719 15.429688 C 24.511719 15.074219 24.511719 14.71875 24.511719 14.355469 C 24.78125 14.246094 24.78125 14.246094 25.097656 14.160156 C 25.226562 14.226562 25.355469 14.289062 25.488281 14.355469 C 25.488281 14.710938 25.488281 15.0625 25.488281 15.429688 C 26.808594 15.429688 28.132812 15.429688 29.492188 15.429688 C 29.492188 15.140625 29.492188 14.851562 29.492188 14.550781 C 29.6875 14.257812 29.6875 14.257812 29.917969 14.171875 C 30.175781 14.160156 30.175781 14.160156 30.386719 14.273438 C 30.566406 14.453125 30.566406 14.453125 30.605469 14.695312 C 30.601562 14.78125 30.59375 14.871094 30.589844 14.960938 C 30.585938 15.046875 30.582031 15.136719 30.582031 15.226562 C 30.574219 15.292969 30.570312 15.359375 30.566406 15.429688 C 30.636719 15.425781 30.710938 15.425781 30.78125 15.421875 C 31.105469 15.414062 31.433594 15.410156 31.757812 15.40625 C 31.867188 15.402344 31.980469 15.398438 32.097656 15.394531 C 32.207031 15.394531 32.3125 15.394531 32.425781 15.390625 C 32.527344 15.390625 32.625 15.386719 32.726562 15.386719 C 33.082031 15.441406 33.242188 15.574219 33.496094 15.820312 C 33.640625 16.109375 33.605469 16.371094 33.605469 16.691406 C 33.605469 16.761719 33.605469 16.832031 33.605469 16.902344 C 33.605469 17.132812 33.605469 17.363281 33.601562 17.59375 C 33.601562 17.753906 33.601562 17.914062 33.601562 18.074219 C 33.601562 18.492188 33.601562 18.914062 33.601562 19.332031 C 33.597656 19.761719 33.597656 20.191406 33.597656 20.621094 C 33.597656 21.460938 33.597656 22.304688 33.59375 23.144531 C 33.132812 23.347656 33.132812 23.347656 32.886719 23.265625 C 32.714844 23.144531 32.714844 23.144531 32.617188 22.949219 C 32.617188 21.984375 32.617188 21.015625 32.617188 20.019531 C 27.589844 20.019531 22.5625 20.019531 17.382812 20.019531 C 17.382812 24.886719 17.382812 29.75 17.382812 34.765625 C 22.410156 34.765625 27.4375 34.765625 32.617188 34.765625 C 32.597656 32.015625 32.597656 32.015625 32.574219 29.265625 C 32.570312 28.730469 32.570312 28.730469 32.570312 28.484375 C 32.570312 28.308594 32.566406 28.136719 32.566406 27.960938 C 32.5625 27.699219 32.5625 27.433594 32.5625 27.171875 C 32.558594 27.09375 32.558594 27.015625 32.554688 26.9375 C 32.558594 26.722656 32.558594 26.722656 32.617188 26.367188 C 32.867188 26.15625 32.996094 26.066406 33.324219 26.09375 C 33.496094 26.171875 33.496094 26.171875 33.59375 26.367188 C 33.605469 26.640625 33.609375 26.914062 33.609375 27.1875 C 33.613281 27.273438 33.613281 27.359375 33.613281 27.445312 C 33.613281 27.726562 33.617188 28.007812 33.617188 28.292969 C 33.617188 28.386719 33.617188 28.484375 33.617188 28.582031 C 33.621094 29.09375 33.621094 29.601562 33.621094 30.109375 C 33.625 30.636719 33.628906 31.164062 33.632812 31.6875 C 33.632812 32.09375 33.632812 32.496094 33.632812 32.902344 C 33.636719 33.09375 33.636719 33.289062 33.636719 33.484375 C 33.640625 33.753906 33.640625 34.027344 33.640625 34.296875 C 33.640625 34.417969 33.640625 34.417969 33.644531 34.539062 C 33.640625 34.910156 33.617188 35.113281 33.433594 35.441406 C 33 35.824219 32.53125 35.863281 31.972656 35.867188 C 31.84375 35.867188 31.71875 35.867188 31.585938 35.867188 C 31.445312 35.867188 31.304688 35.867188 31.164062 35.867188 C 31.015625 35.867188 30.863281 35.867188 30.714844 35.867188 C 30.3125 35.871094 29.90625 35.871094 29.503906 35.871094 C 29.167969 35.871094 28.828125 35.871094 28.492188 35.871094 C 27.695312 35.871094 26.898438 35.871094 26.101562 35.871094 C 25.28125 35.871094 24.460938 35.871094 23.640625 35.875 C 22.933594 35.875 22.226562 35.875 21.523438 35.875 C 21.101562 35.875 20.679688 35.875 20.257812 35.875 C 19.863281 35.878906 19.464844 35.878906 19.070312 35.875 C 18.925781 35.875 18.78125 35.875 18.636719 35.878906 C 17.042969 35.886719 17.042969 35.886719 16.539062 35.390625 C 16.351562 35.0625 16.367188 34.753906 16.367188 34.386719 C 16.367188 34.308594 16.367188 34.230469 16.367188 34.148438 C 16.367188 33.886719 16.367188 33.625 16.367188 33.363281 C 16.367188 33.175781 16.367188 32.988281 16.363281 32.800781 C 16.363281 32.289062 16.363281 31.777344 16.363281 31.269531 C 16.363281 30.839844 16.363281 30.414062 16.363281 29.988281 C 16.363281 28.984375 16.363281 27.980469 16.363281 26.976562 C 16.363281 25.9375 16.363281 24.902344 16.359375 23.863281 C 16.359375 22.976562 16.355469 22.085938 16.359375 21.195312 C 16.359375 20.664062 16.359375 20.132812 16.355469 19.601562 C 16.355469 19.101562 16.355469 18.601562 16.355469 18.101562 C 16.355469 17.917969 16.355469 17.734375 16.355469 17.550781 C 16.355469 17.300781 16.355469 17.046875 16.355469 16.796875 C 16.355469 16.726562 16.355469 16.652344 16.355469 16.578125 C 16.359375 16.101562 16.457031 15.859375 16.796875 15.527344 C 17.058594 15.398438 17.253906 15.417969 17.546875 15.421875 C 17.65625 15.421875 17.765625 15.421875 17.878906 15.421875 C 17.992188 15.421875 18.105469 15.421875 18.226562 15.421875 C 18.339844 15.425781 18.457031 15.425781 18.574219 15.425781 C 18.863281 15.425781 19.148438 15.425781 19.433594 15.429688 C 19.429688 15.363281 19.425781 15.296875 19.417969 15.226562 C 19.414062 15.09375 19.414062 15.09375 19.410156 14.960938 C 19.40625 14.871094 19.398438 14.785156 19.394531 14.695312 C 19.433594 14.453125 19.433594 14.453125 19.609375 14.269531 C 19.824219 14.160156 19.824219 14.160156 20.136719 14.226562 Z M 20.136719 14.226562 "/>
<path style=" stroke:none;fill-rule:nonzero;fill:rgb(0.392157%,0.784314%,0.784314%);fill-opacity:1;" d="M 29.003906 4.199219 C 29.085938 4.214844 29.167969 4.234375 29.253906 4.25 C 33.710938 5.167969 38.785156 7.722656 41.40625 11.621094 C 41.492188 11.871094 41.515625 11.96875 41.441406 12.226562 C 41.308594 12.402344 41.308594 12.402344 41.082031 12.507812 C 40.820312 12.5 40.820312 12.5 40.605469 12.304688 C 40.511719 12.207031 40.421875 12.109375 40.332031 12.011719 C 40.277344 11.953125 40.222656 11.894531 40.167969 11.835938 C 40.046875 11.703125 39.925781 11.570312 39.804688 11.4375 C 38.601562 10.136719 37.328125 9.0625 35.839844 8.105469 C 35.773438 8.0625 35.710938 8.019531 35.640625 7.976562 C 31.269531 5.199219 25.765625 4.277344 20.714844 5.390625 C 16.960938 6.269531 13.71875 8.089844 10.9375 10.742188 C 10.855469 10.820312 10.769531 10.898438 10.683594 10.980469 C 7.453125 14.09375 5.359375 18.675781 5.03125 23.136719 C 4.976562 23.464844 4.953125 23.539062 4.6875 23.730469 C 4.40625 23.769531 4.40625 23.769531 4.066406 23.773438 C 3.945312 23.777344 3.824219 23.777344 3.699219 23.78125 C 3.570312 23.78125 3.445312 23.785156 3.3125 23.785156 C 3.0625 23.789062 2.8125 23.792969 2.558594 23.796875 C 2.449219 23.800781 2.335938 23.800781 2.222656 23.800781 C 1.9375 23.800781 1.9375 23.800781 1.757812 24.023438 C 1.789062 24.457031 1.917969 24.769531 2.128906 25.140625 C 2.1875 25.242188 2.242188 25.339844 2.300781 25.445312 C 2.359375 25.550781 2.421875 25.65625 2.484375 25.761719 C 2.546875 25.871094 2.609375 25.980469 2.671875 26.09375 C 3.085938 26.820312 3.507812 27.542969 3.933594 28.261719 C 4.351562 28.964844 4.757812 29.679688 5.167969 30.390625 C 5.226562 30.492188 5.289062 30.597656 5.347656 30.707031 C 5.402344 30.796875 5.457031 30.890625 5.511719 30.988281 C 5.613281 31.164062 5.722656 31.339844 5.832031 31.515625 C 5.957031 31.738281 5.957031 31.738281 5.957031 31.933594 C 6.273438 32.007812 6.273438 32.007812 6.640625 31.933594 C 6.789062 31.777344 6.789062 31.777344 6.910156 31.570312 C 6.960938 31.488281 7.011719 31.410156 7.0625 31.328125 C 7.332031 30.875 7.597656 30.421875 7.855469 29.964844 C 7.988281 29.726562 8.125 29.484375 8.261719 29.246094 C 8.332031 29.121094 8.402344 29 8.472656 28.875 C 8.835938 28.238281 9.203125 27.601562 9.570312 26.964844 C 9.632812 26.859375 9.691406 26.753906 9.753906 26.644531 C 10.007812 26.207031 10.261719 25.769531 10.523438 25.335938 C 10.558594 25.273438 10.597656 25.210938 10.636719 25.144531 C 10.734375 24.984375 10.828125 24.828125 10.925781 24.671875 C 11.054688 24.371094 11.042969 24.230469 10.9375 23.925781 C 10.761719 23.75 10.496094 23.808594 10.261719 23.804688 C 10.082031 23.800781 10.082031 23.800781 9.902344 23.792969 C 9.652344 23.789062 9.402344 23.78125 9.152344 23.777344 C 9.035156 23.773438 8.917969 23.769531 8.796875 23.765625 C 8.6875 23.765625 8.578125 23.761719 8.464844 23.761719 C 8.203125 23.730469 8.203125 23.730469 8.007812 23.535156 C 7.929688 22.902344 8.03125 22.265625 8.160156 21.648438 C 8.175781 21.566406 8.195312 21.480469 8.210938 21.394531 C 8.800781 18.695312 10.003906 16.15625 11.816406 14.0625 C 11.917969 13.945312 11.917969 13.945312 12.023438 13.824219 C 12.242188 13.574219 12.46875 13.328125 12.695312 13.085938 C 12.773438 13 12.851562 12.917969 12.929688 12.832031 C 15.214844 10.445312 18.214844 8.988281 21.386719 8.203125 C 21.492188 8.175781 21.59375 8.152344 21.703125 8.125 C 22.425781 7.96875 23.191406 7.945312 23.925781 8.007812 C 24.121094 8.203125 24.121094 8.203125 24.152344 8.496094 C 24.136719 8.640625 24.136719 8.640625 24.121094 8.789062 C 23.824219 8.988281 23.691406 9.023438 23.347656 9.070312 C 23.253906 9.085938 23.15625 9.101562 23.058594 9.117188 C 22.957031 9.128906 22.851562 9.144531 22.746094 9.160156 C 18.574219 9.828125 14.785156 11.9375 12.207031 15.332031 C 11.476562 16.34375 10.867188 17.417969 10.351562 18.554688 C 10.324219 18.613281 10.296875 18.675781 10.269531 18.734375 C 9.695312 20.023438 9.378906 21.382812 9.082031 22.753906 C 9.140625 22.75 9.199219 22.75 9.261719 22.746094 C 9.53125 22.738281 9.800781 22.734375 10.070312 22.730469 C 10.164062 22.726562 10.257812 22.722656 10.351562 22.71875 C 10.925781 22.710938 11.265625 22.75 11.71875 23.144531 C 12.019531 23.46875 12.148438 23.757812 12.195312 24.195312 C 12.160156 24.996094 11.691406 25.640625 11.285156 26.308594 C 11.070312 26.667969 10.859375 27.03125 10.648438 27.394531 C 10.476562 27.691406 10.304688 27.988281 10.128906 28.28125 C 9.8125 28.824219 9.5 29.367188 9.1875 29.910156 C 8.945312 30.332031 8.699219 30.753906 8.457031 31.175781 C 8.324219 31.40625 8.191406 31.640625 8.0625 31.875 C 7.515625 32.84375 7.515625 32.84375 6.925781 33.0625 C 6.394531 33.183594 5.945312 33.144531 5.46875 32.875 C 5.078125 32.554688 4.859375 32.109375 4.621094 31.671875 C 4.472656 31.410156 4.320312 31.148438 4.167969 30.886719 C 3.886719 30.398438 3.601562 29.910156 3.320312 29.417969 C 3.03125 28.914062 2.738281 28.40625 2.445312 27.902344 C 2.261719 27.582031 2.078125 27.261719 1.894531 26.941406 C 1.695312 26.589844 1.488281 26.242188 1.273438 25.898438 C 0.847656 25.195312 0.492188 24.582031 0.683594 23.730469 C 0.871094 23.269531 1.214844 22.976562 1.660156 22.753906 C 1.835938 22.746094 2.015625 22.742188 2.191406 22.746094 C 2.347656 22.746094 2.347656 22.746094 2.511719 22.746094 C 2.621094 22.746094 2.730469 22.746094 2.84375 22.746094 C 2.957031 22.75 3.066406 22.75 3.179688 22.75 C 3.453125 22.75 3.730469 22.75 4.003906 22.753906 C 4.011719 22.636719 4.011719 22.636719 4.015625 22.519531 C 4.066406 21.746094 4.179688 21.011719 4.359375 20.257812 C 4.382812 20.148438 4.410156 20.035156 4.4375 19.921875 C 5.175781 16.90625 6.539062 13.96875 8.59375 11.621094 C 8.691406 11.507812 8.785156 11.394531 8.882812 11.28125 C 9.722656 10.28125 10.597656 9.410156 11.621094 8.59375 C 11.699219 8.53125 11.777344 8.464844 11.855469 8.398438 C 14.480469 6.230469 17.667969 4.855469 20.996094 4.199219 C 21.070312 4.183594 21.144531 4.167969 21.222656 4.152344 C 23.667969 3.640625 26.5625 3.671875 29.003906 4.199219 Z M 29.003906 4.199219 "/>
<path style=" stroke:none;fill-rule:nonzero;fill:rgb(0.392157%,0.392157%,0.784314%);fill-opacity:1;" d="M 44.53125 17.125 C 44.921875 17.445312 45.140625 17.890625 45.378906 18.328125 C 45.527344 18.589844 45.679688 18.851562 45.832031 19.113281 C 46.113281 19.601562 46.398438 20.089844 46.679688 20.582031 C 46.96875 21.085938 47.261719 21.59375 47.554688 22.097656 C 47.738281 22.417969 47.921875 22.738281 48.105469 23.058594 C 48.304688 23.410156 48.511719 23.757812 48.726562 24.101562 C 49.445312 25.285156 49.445312 25.285156 49.371094 26.046875 C 49.246094 26.550781 48.96875 26.886719 48.539062 27.167969 C 48.097656 27.34375 47.597656 27.285156 47.132812 27.269531 C 47.023438 27.269531 46.914062 27.265625 46.800781 27.265625 C 46.53125 27.261719 46.265625 27.253906 45.996094 27.246094 C 45.992188 27.324219 45.988281 27.402344 45.984375 27.480469 C 45.933594 28.253906 45.820312 28.988281 45.640625 29.742188 C 45.617188 29.851562 45.589844 29.964844 45.5625 30.078125 C 44.945312 32.601562 43.890625 34.988281 42.382812 37.109375 C 42.34375 37.164062 42.304688 37.21875 42.265625 37.277344 C 41.824219 37.898438 41.347656 38.476562 40.832031 39.035156 C 40.648438 39.230469 40.480469 39.433594 40.308594 39.636719 C 39.457031 40.609375 38.445312 41.433594 37.402344 42.1875 C 37.347656 42.226562 37.296875 42.265625 37.238281 42.304688 C 32.882812 45.445312 27.210938 46.746094 21.90625 45.976562 C 21.601562 45.925781 21.296875 45.867188 20.996094 45.800781 C 20.914062 45.785156 20.832031 45.765625 20.746094 45.75 C 16.21875 44.816406 11.332031 42.289062 8.609375 38.414062 C 8.496094 38.183594 8.496094 38.183594 8.574219 37.859375 C 8.613281 37.773438 8.652344 37.6875 8.691406 37.597656 C 8.953125 37.519531 8.953125 37.519531 9.277344 37.5 C 9.523438 37.699219 9.523438 37.699219 9.757812 37.980469 C 9.800781 38.03125 9.84375 38.082031 9.886719 38.132812 C 10.011719 38.277344 10.132812 38.425781 10.253906 38.574219 C 11.699219 40.304688 13.535156 41.640625 15.527344 42.675781 C 15.652344 42.742188 15.78125 42.8125 15.90625 42.878906 C 17.777344 43.863281 19.792969 44.488281 21.875 44.824219 C 21.972656 44.839844 22.074219 44.859375 22.175781 44.875 C 23.03125 45.011719 23.867188 45.050781 24.730469 45.042969 C 24.796875 45.042969 24.863281 45.042969 24.933594 45.042969 C 25.976562 45.035156 27 45.003906 28.027344 44.824219 C 28.117188 44.808594 28.203125 44.792969 28.296875 44.777344 C 33.585938 43.835938 38.304688 40.894531 41.40625 36.503906 C 42.9375 34.292969 43.957031 31.902344 44.585938 29.289062 C 44.617188 29.160156 44.617188 29.160156 44.652344 29.023438 C 44.800781 28.378906 44.902344 27.738281 44.949219 27.074219 C 44.988281 26.609375 44.988281 26.609375 45.128906 26.398438 C 45.394531 26.210938 45.609375 26.230469 45.933594 26.226562 C 46.054688 26.222656 46.175781 26.222656 46.300781 26.21875 C 46.429688 26.21875 46.554688 26.214844 46.6875 26.214844 C 46.9375 26.210938 47.1875 26.207031 47.441406 26.203125 C 47.609375 26.199219 47.609375 26.199219 47.777344 26.199219 C 48.0625 26.199219 48.0625 26.199219 48.242188 25.976562 C 48.289062 25.578125 48.199219 25.355469 47.996094 25.015625 C 47.941406 24.925781 47.886719 24.835938 47.832031 24.742188 C 47.769531 24.644531 47.710938 24.546875 47.648438 24.445312 C 47.523438 24.230469 47.398438 24.019531 47.269531 23.808594 C 47.207031 23.699219 47.140625 23.589844 47.070312 23.476562 C 46.757812 22.949219 46.453125 22.417969 46.148438 21.886719 C 46.027344 21.675781 45.90625 21.46875 45.785156 21.257812 C 45.695312 21.097656 45.695312 21.097656 45.601562 20.9375 C 45.296875 20.40625 44.992188 19.878906 44.683594 19.347656 C 44.527344 19.078125 44.371094 18.804688 44.214844 18.53125 C 44.136719 18.398438 44.136719 18.398438 44.054688 18.257812 C 44 18.164062 44 18.164062 43.945312 18.066406 C 43.664062 18.035156 43.664062 18.035156 43.359375 18.066406 C 43.1875 18.214844 43.1875 18.214844 43.070312 18.433594 C 43.023438 18.515625 42.976562 18.59375 42.925781 18.675781 C 42.875 18.765625 42.824219 18.855469 42.773438 18.945312 C 42.722656 19.035156 42.667969 19.125 42.613281 19.214844 C 42.4375 19.511719 42.265625 19.8125 42.097656 20.109375 C 42 20.277344 41.902344 20.445312 41.808594 20.613281 C 41.707031 20.789062 41.609375 20.960938 41.507812 21.136719 C 41.1875 21.699219 40.863281 22.257812 40.539062 22.820312 C 40.480469 22.925781 40.417969 23.03125 40.355469 23.140625 C 40.09375 23.59375 39.832031 24.046875 39.554688 24.492188 C 39.515625 24.558594 39.472656 24.625 39.429688 24.695312 C 39.324219 24.867188 39.214844 25.039062 39.105469 25.210938 C 38.960938 25.5 38.914062 25.65625 38.964844 25.976562 C 39.230469 26.242188 39.378906 26.199219 39.75 26.207031 C 39.867188 26.207031 39.984375 26.210938 40.105469 26.214844 C 40.226562 26.214844 40.351562 26.21875 40.476562 26.21875 C 40.722656 26.226562 40.964844 26.230469 41.207031 26.234375 C 41.371094 26.238281 41.371094 26.238281 41.535156 26.242188 C 41.796875 26.269531 41.796875 26.269531 41.992188 26.464844 C 42.136719 28.773438 41.128906 31.214844 40.039062 33.203125 C 39.976562 33.320312 39.914062 33.441406 39.851562 33.558594 C 39.148438 34.859375 38.222656 35.945312 37.207031 37.011719 C 37.128906 37.097656 37.046875 37.179688 36.964844 37.269531 C 34.453125 39.875 30.519531 41.835938 26.875 42.007812 C 26.605469 42.011719 26.339844 42.007812 26.074219 41.992188 C 25.882812 41.652344 25.871094 41.492188 25.976562 41.113281 C 26.457031 41 26.933594 40.902344 27.421875 40.824219 C 31.582031 40.136719 35.445312 37.914062 37.9375 34.46875 C 38.601562 33.511719 39.167969 32.507812 39.648438 31.445312 C 39.675781 31.386719 39.703125 31.324219 39.730469 31.265625 C 40.304688 29.976562 40.621094 28.617188 40.917969 27.246094 C 40.828125 27.25 40.828125 27.25 40.738281 27.253906 C 40.46875 27.261719 40.199219 27.265625 39.929688 27.269531 C 39.835938 27.273438 39.742188 27.277344 39.648438 27.28125 C 39.074219 27.289062 38.734375 27.25 38.28125 26.855469 C 37.980469 26.53125 37.851562 26.242188 37.804688 25.804688 C 37.839844 25.003906 38.308594 24.359375 38.714844 23.691406 C 38.929688 23.332031 39.140625 22.96875 39.351562 22.605469 C 39.523438 22.308594 39.695312 22.011719 39.871094 21.71875 C 40.1875 21.175781 40.5 20.632812 40.8125 20.089844 C 41.054688 19.667969 41.300781 19.246094 41.542969 18.824219 C 41.675781 18.59375 41.808594 18.359375 41.9375 18.125 C 42.484375 17.15625 42.484375 17.15625 43.074219 16.9375 C 43.605469 16.816406 44.054688 16.855469 44.53125 17.125 Z M 44.53125 17.125 "/>
<path style=" stroke:none;fill-rule:nonzero;fill:rgb(76.078431%,89.411765%,99.607843%);fill-opacity:1;" d="M 43.664062 26.09375 C 43.757812 26.117188 43.851562 26.144531 43.945312 26.171875 C 44.28125 26.84375 43.996094 27.871094 43.855469 28.570312 C 43.832031 28.675781 43.8125 28.78125 43.789062 28.886719 C 43.136719 31.910156 41.8125 34.882812 39.746094 37.207031 C 39.679688 37.285156 39.613281 37.359375 39.542969 37.441406 C 39.324219 37.691406 39.097656 37.9375 38.867188 38.183594 C 38.820312 38.234375 38.769531 38.285156 38.722656 38.339844 C 36.660156 40.523438 34.148438 42.015625 31.347656 43.066406 C 31.226562 43.113281 31.226562 43.113281 31.105469 43.160156 C 30.457031 43.40625 29.816406 43.578125 29.136719 43.714844 C 29.035156 43.734375 28.933594 43.753906 28.828125 43.777344 C 23.929688 44.738281 18.785156 43.875 14.585938 41.113281 C 13.714844 40.519531 12.894531 39.863281 12.109375 39.160156 C 12.027344 39.085938 11.941406 39.011719 11.859375 38.9375 C 11.335938 38.449219 11.335938 38.449219 11.296875 38.125 C 11.328125 37.890625 11.328125 37.890625 11.523438 37.695312 C 11.902344 37.671875 12.101562 37.699219 12.390625 37.953125 C 12.53125 38.101562 12.667969 38.25 12.808594 38.398438 C 15.628906 41.183594 19.914062 42.878906 23.828125 43.066406 C 23.921875 43.070312 24.011719 43.074219 24.105469 43.082031 C 26.382812 43.183594 28.722656 42.902344 30.859375 42.089844 C 30.96875 42.050781 30.96875 42.050781 31.082031 42.007812 C 35.628906 40.355469 39.292969 37.039062 41.386719 32.675781 C 42.207031 30.894531 42.757812 28.957031 42.964844 27.011719 C 42.980469 26.890625 42.980469 26.890625 42.996094 26.769531 C 43.003906 26.664062 43.003906 26.664062 43.015625 26.554688 C 43.121094 26.171875 43.277344 26.070312 43.664062 26.09375 Z M 43.664062 26.09375 "/>
<path style=" stroke:none;fill-rule:nonzero;fill:rgb(76.078431%,89.411765%,99.607843%);fill-opacity:1;" d="M 27.929688 6.054688 C 28.050781 6.070312 28.167969 6.089844 28.292969 6.105469 C 31.90625 6.683594 35.179688 8.433594 37.890625 10.839844 C 37.976562 10.914062 38.058594 10.984375 38.148438 11.0625 C 38.34375 11.238281 38.519531 11.402344 38.671875 11.621094 C 38.679688 11.957031 38.679688 11.957031 38.574219 12.207031 C 38.476562 12.304688 38.476562 12.304688 38.183594 12.316406 C 37.71875 12.238281 37.5 11.933594 37.1875 11.601562 C 35.6875 10.113281 33.710938 8.941406 31.738281 8.203125 C 31.652344 8.171875 31.566406 8.140625 31.476562 8.105469 C 26.839844 6.402344 21.886719 6.535156 17.382812 8.59375 C 12.914062 10.722656 9.511719 14.511719 7.832031 19.164062 C 7.40625 20.535156 7.148438 21.988281 6.988281 23.414062 C 6.925781 23.671875 6.855469 23.773438 6.640625 23.925781 C 6.335938 23.90625 6.335938 23.90625 6.054688 23.828125 C 5.441406 22.605469 6.410156 20.128906 6.808594 18.902344 C 7.71875 16.21875 9.195312 13.878906 11.132812 11.816406 C 11.179688 11.765625 11.230469 11.714844 11.277344 11.660156 C 15.484375 7.203125 21.882812 5.070312 27.929688 6.054688 Z M 27.929688 6.054688 "/>
<path style=" stroke:none;fill-rule:nonzero;fill:rgb(98.431373%,36.078431%,23.529412%);fill-opacity:1;" d="M 17.382812 16.40625 C 18.058594 16.40625 18.734375 16.40625 19.433594 16.40625 C 19.5 16.632812 19.5625 16.859375 19.628906 17.089844 C 19.980469 17.1875 19.980469 17.1875 20.3125 17.089844 C 20.34375 16.863281 20.375 16.640625 20.410156 16.40625 C 21.765625 16.40625 23.117188 16.40625 24.511719 16.40625 C 24.558594 16.792969 24.558594 16.792969 24.609375 17.1875 C 24.867188 17.1875 25.125 17.1875 25.390625 17.1875 C 25.421875 16.929688 25.453125 16.671875 25.488281 16.40625 C 26.84375 16.40625 28.195312 16.40625 29.589844 16.40625 C 29.636719 16.746094 29.636719 16.746094 29.6875 17.089844 C 29.789062 17.214844 29.789062 17.214844 30.023438 17.207031 C 30.289062 17.214844 30.289062 17.214844 30.46875 16.992188 C 30.5 16.796875 30.53125 16.605469 30.566406 16.40625 C 31.242188 16.40625 31.921875 16.40625 32.617188 16.40625 C 32.617188 17.277344 32.617188 18.148438 32.617188 19.042969 C 27.589844 19.042969 22.5625 19.042969 17.382812 19.042969 C 17.382812 18.171875 17.382812 17.304688 17.382812 16.40625 Z M 17.382812 16.40625 "/>
<path style=" stroke:none;fill-rule:nonzero;fill:rgb(99.607843%,99.607843%,99.607843%);fill-opacity:1;" d="M 18.652344 20.972656 C 18.945312 20.996094 18.945312 20.996094 19.140625 21.191406 C 19.164062 21.402344 19.164062 21.402344 19.164062 21.667969 C 19.164062 21.769531 19.164062 21.867188 19.164062 21.972656 C 19.164062 22.082031 19.164062 22.191406 19.164062 22.308594 C 19.164062 22.421875 19.164062 22.539062 19.164062 22.660156 C 19.164062 22.980469 19.160156 23.296875 19.160156 23.617188 C 19.160156 23.949219 19.160156 24.285156 19.160156 24.617188 C 19.160156 25.25 19.15625 25.878906 19.15625 26.511719 C 19.152344 27.230469 19.152344 27.949219 19.152344 28.667969 C 19.148438 30.148438 19.144531 31.625 19.140625 33.105469 C 19.234375 33.105469 19.234375 33.105469 19.328125 33.105469 C 20.84375 33.101562 22.355469 33.097656 23.867188 33.09375 C 24.597656 33.09375 25.332031 33.09375 26.0625 33.089844 C 26.699219 33.089844 27.335938 33.085938 27.972656 33.085938 C 28.3125 33.085938 28.648438 33.085938 28.988281 33.085938 C 29.363281 33.082031 29.738281 33.082031 30.117188 33.082031 C 30.285156 33.082031 30.285156 33.082031 30.457031 33.082031 C 30.558594 33.082031 30.660156 33.082031 30.765625 33.082031 C 30.902344 33.082031 30.902344 33.082031 31.035156 33.082031 C 31.25 33.105469 31.25 33.105469 31.445312 33.300781 C 31.476562 33.59375 31.476562 33.59375 31.445312 33.886719 C 31.121094 34.101562 31.019531 34.105469 30.640625 34.109375 C 30.484375 34.109375 30.484375 34.109375 30.320312 34.109375 C 30.203125 34.109375 30.089844 34.109375 29.96875 34.109375 C 29.847656 34.109375 29.722656 34.109375 29.597656 34.109375 C 29.261719 34.113281 28.925781 34.113281 28.589844 34.113281 C 28.3125 34.113281 28.03125 34.113281 27.75 34.113281 C 27.089844 34.113281 26.429688 34.113281 25.769531 34.113281 C 25.085938 34.113281 24.40625 34.113281 23.722656 34.117188 C 23.140625 34.117188 22.554688 34.117188 21.96875 34.117188 C 21.621094 34.117188 21.269531 34.117188 20.921875 34.117188 C 20.53125 34.121094 20.140625 34.121094 19.75 34.117188 C 19.636719 34.117188 19.519531 34.121094 19.398438 34.121094 C 19.292969 34.121094 19.1875 34.121094 19.078125 34.117188 C 18.941406 34.117188 18.941406 34.117188 18.796875 34.117188 C 18.5 34.074219 18.371094 34.007812 18.164062 33.789062 C 18.117188 33.558594 18.117188 33.558594 18.117188 33.277344 C 18.113281 33.171875 18.113281 33.066406 18.113281 32.957031 C 18.113281 32.839844 18.117188 32.722656 18.117188 32.601562 C 18.117188 32.480469 18.117188 32.355469 18.117188 32.230469 C 18.113281 31.894531 18.117188 31.558594 18.117188 31.222656 C 18.121094 30.871094 18.121094 30.519531 18.121094 30.167969 C 18.121094 29.578125 18.121094 28.984375 18.125 28.394531 C 18.125 27.710938 18.128906 27.027344 18.128906 26.34375 C 18.128906 25.6875 18.128906 25.03125 18.128906 24.375 C 18.132812 24.09375 18.132812 23.816406 18.132812 23.535156 C 18.132812 23.144531 18.132812 22.753906 18.136719 22.367188 C 18.136719 22.25 18.136719 22.132812 18.136719 22.011719 C 18.136719 21.90625 18.136719 21.800781 18.136719 21.691406 C 18.136719 21.597656 18.136719 21.507812 18.140625 21.410156 C 18.179688 21.050781 18.304688 21 18.652344 20.972656 Z M 18.652344 20.972656 "/>
<path style=" stroke:none;fill-rule:nonzero;fill:rgb(0.392157%,0.784314%,1.176471%);fill-opacity:1;" d="M 11.957031 34.683594 C 12.25 34.78125 12.367188 34.886719 12.574219 35.113281 C 12.636719 35.1875 12.703125 35.257812 12.773438 35.332031 C 12.839844 35.40625 12.90625 35.480469 12.976562 35.558594 C 13.109375 35.707031 13.242188 35.851562 13.378906 36 C 13.445312 36.070312 13.507812 36.144531 13.578125 36.21875 C 15.824219 38.652344 18.96875 40.191406 22.207031 40.789062 C 22.488281 40.84375 22.714844 40.890625 22.949219 41.058594 C 23.046875 41.210938 23.046875 41.210938 23.027344 41.460938 C 22.949219 41.699219 22.949219 41.699219 22.753906 41.894531 C 22.070312 41.941406 21.476562 41.828125 20.820312 41.648438 C 20.722656 41.625 20.625 41.597656 20.523438 41.570312 C 17.652344 40.773438 15.109375 39.289062 12.988281 37.207031 C 12.898438 37.121094 12.808594 37.035156 12.71875 36.945312 C 11.578125 35.839844 11.578125 35.839844 11.328125 35.351562 C 11.339844 35.09375 11.339844 35.09375 11.425781 34.863281 C 11.71875 34.667969 11.71875 34.667969 11.957031 34.683594 Z M 11.957031 34.683594 "/>
<path style=" stroke:none;fill-rule:nonzero;fill:rgb(0.392157%,0.392157%,0.784314%);fill-opacity:1;" d="M 27.464844 8.09375 C 31.707031 8.453125 35.421875 10.933594 38.210938 14.015625 C 38.675781 14.570312 38.675781 14.570312 38.65625 14.90625 C 38.574219 15.136719 38.574219 15.136719 38.28125 15.332031 C 37.921875 15.324219 37.75 15.289062 37.492188 15.035156 C 37.425781 14.949219 37.363281 14.859375 37.296875 14.769531 C 34.984375 11.78125 31.484375 9.910156 27.800781 9.214844 C 27.515625 9.160156 27.289062 9.113281 27.050781 8.941406 C 26.953125 8.789062 26.953125 8.789062 26.972656 8.539062 C 27.070312 8.238281 27.136719 8.109375 27.464844 8.09375 Z M 27.464844 8.09375 "/>
<path style=" stroke:none;fill-rule:nonzero;fill:rgb(3.137255%,3.137255%,3.137255%);fill-opacity:1;" d="M 20.535156 30.332031 C 20.664062 30.332031 20.664062 30.332031 20.792969 30.332031 C 20.933594 30.332031 20.933594 30.332031 21.078125 30.332031 C 21.226562 30.332031 21.226562 30.332031 21.378906 30.332031 C 21.703125 30.332031 22.03125 30.332031 22.355469 30.332031 C 22.582031 30.332031 22.808594 30.332031 23.035156 30.332031 C 23.511719 30.332031 23.988281 30.332031 24.460938 30.332031 C 25.070312 30.335938 25.683594 30.332031 26.292969 30.332031 C 26.761719 30.332031 27.226562 30.332031 27.695312 30.332031 C 27.921875 30.332031 28.144531 30.332031 28.371094 30.332031 C 28.683594 30.332031 29 30.332031 29.3125 30.332031 C 29.40625 30.332031 29.5 30.332031 29.597656 30.332031 C 29.679688 30.332031 29.765625 30.332031 29.855469 30.332031 C 29.964844 30.335938 29.964844 30.335938 30.078125 30.335938 C 30.328125 30.382812 30.417969 30.460938 30.566406 30.664062 C 30.523438 31.195312 30.523438 31.195312 30.371094 31.347656 C 30.238281 31.355469 30.101562 31.359375 29.96875 31.359375 C 29.835938 31.363281 29.835938 31.363281 29.703125 31.363281 C 29.609375 31.363281 29.511719 31.363281 29.414062 31.363281 C 29.3125 31.363281 29.210938 31.363281 29.109375 31.363281 C 28.773438 31.363281 28.4375 31.363281 28.105469 31.363281 C 27.871094 31.363281 27.640625 31.363281 27.410156 31.363281 C 26.921875 31.367188 26.4375 31.367188 25.953125 31.367188 C 25.328125 31.367188 24.703125 31.367188 24.078125 31.367188 C 23.601562 31.371094 23.121094 31.371094 22.644531 31.371094 C 22.414062 31.371094 22.183594 31.371094 21.953125 31.371094 C 21.632812 31.371094 21.3125 31.371094 20.992188 31.371094 C 20.894531 31.371094 20.796875 31.371094 20.699219 31.371094 C 20.613281 31.371094 20.523438 31.371094 20.433594 31.371094 C 20.359375 31.371094 20.285156 31.371094 20.203125 31.371094 C 20.019531 31.347656 20.019531 31.347656 19.824219 31.152344 C 19.789062 30.878906 19.773438 30.726562 19.945312 30.503906 C 20.160156 30.339844 20.269531 30.335938 20.535156 30.332031 Z M 20.535156 30.332031 "/>
<path style=" stroke:none;fill-rule:nonzero;fill:rgb(1.960784%,1.960784%,1.960784%);fill-opacity:1;" d="M 20.417969 22.632812 C 20.546875 22.628906 20.546875 22.628906 20.671875 22.628906 C 20.765625 22.628906 20.859375 22.628906 20.953125 22.632812 C 21.050781 22.628906 21.148438 22.628906 21.246094 22.628906 C 21.566406 22.628906 21.890625 22.628906 22.210938 22.628906 C 22.433594 22.628906 22.65625 22.628906 22.878906 22.628906 C 23.34375 22.628906 23.8125 22.628906 24.28125 22.628906 C 24.878906 22.632812 25.480469 22.632812 26.078125 22.628906 C 26.539062 22.628906 26.996094 22.628906 27.457031 22.628906 C 27.679688 22.628906 27.898438 22.628906 28.121094 22.628906 C 28.429688 22.628906 28.738281 22.628906 29.046875 22.632812 C 29.183594 22.628906 29.183594 22.628906 29.328125 22.628906 C 29.453125 22.628906 29.453125 22.628906 29.582031 22.632812 C 29.652344 22.632812 29.726562 22.632812 29.800781 22.632812 C 29.980469 22.65625 29.980469 22.65625 30.175781 22.851562 C 30.152344 23.199219 30.152344 23.199219 30.078125 23.535156 C 29.855469 23.644531 29.734375 23.644531 29.492188 23.648438 C 29.367188 23.648438 29.367188 23.648438 29.242188 23.648438 C 29.105469 23.648438 29.105469 23.648438 28.96875 23.648438 C 28.828125 23.648438 28.828125 23.648438 28.679688 23.648438 C 28.367188 23.652344 28.050781 23.652344 27.738281 23.652344 C 27.519531 23.652344 27.300781 23.652344 27.082031 23.65625 C 26.625 23.65625 26.167969 23.65625 25.710938 23.65625 C 25.125 23.65625 24.539062 23.660156 23.949219 23.660156 C 23.5 23.664062 23.050781 23.664062 22.601562 23.664062 C 22.382812 23.664062 22.167969 23.664062 21.949219 23.667969 C 21.648438 23.667969 21.347656 23.667969 21.042969 23.667969 C 20.953125 23.667969 20.863281 23.667969 20.769531 23.671875 C 20.648438 23.667969 20.648438 23.667969 20.523438 23.667969 C 20.449219 23.667969 20.378906 23.667969 20.304688 23.667969 C 20.0625 23.621094 19.972656 23.535156 19.824219 23.339844 C 19.792969 23.089844 19.792969 23.089844 19.824219 22.851562 C 20.058594 22.617188 20.105469 22.632812 20.417969 22.632812 Z M 20.417969 22.632812 "/>
<path style=" stroke:none;fill-rule:nonzero;fill:rgb(3.921569%,3.921569%,3.921569%);fill-opacity:1;" d="M 20.574219 26.535156 C 20.652344 26.535156 20.730469 26.535156 20.808594 26.535156 C 20.890625 26.535156 20.972656 26.535156 21.058594 26.535156 C 21.328125 26.53125 21.597656 26.53125 21.867188 26.53125 C 22.054688 26.53125 22.242188 26.53125 22.429688 26.53125 C 22.824219 26.53125 23.21875 26.53125 23.613281 26.53125 C 24.117188 26.53125 24.621094 26.53125 25.128906 26.527344 C 25.515625 26.527344 25.902344 26.527344 26.289062 26.527344 C 26.476562 26.527344 26.660156 26.527344 26.847656 26.527344 C 27.109375 26.523438 27.367188 26.523438 27.628906 26.527344 C 27.707031 26.527344 27.78125 26.523438 27.863281 26.523438 C 28.078125 26.527344 28.078125 26.527344 28.417969 26.5625 C 28.613281 26.855469 28.613281 26.855469 28.59375 27.105469 C 28.515625 27.34375 28.515625 27.34375 28.222656 27.539062 C 27.960938 27.558594 27.710938 27.566406 27.449219 27.566406 C 27.371094 27.566406 27.292969 27.566406 27.210938 27.566406 C 26.953125 27.570312 26.691406 27.570312 26.429688 27.570312 C 26.25 27.570312 26.070312 27.570312 25.890625 27.570312 C 25.511719 27.570312 25.132812 27.570312 24.753906 27.570312 C 24.269531 27.570312 23.78125 27.570312 23.296875 27.574219 C 22.921875 27.574219 22.550781 27.574219 22.175781 27.574219 C 22 27.574219 21.820312 27.574219 21.640625 27.574219 C 21.390625 27.578125 21.140625 27.578125 20.890625 27.574219 C 20.816406 27.574219 20.742188 27.578125 20.664062 27.578125 C 20.164062 27.574219 20.164062 27.574219 19.925781 27.40625 C 19.78125 27.179688 19.789062 27.019531 19.824219 26.757812 C 20.074219 26.507812 20.234375 26.539062 20.574219 26.535156 Z M 20.574219 26.535156 "/>
<path style=" stroke:none;fill-rule:nonzero;fill:rgb(1.176471%,1.960784%,2.352941%);fill-opacity:1;" d="M 25.539062 7.859375 C 25.78125 7.910156 25.78125 7.910156 25.957031 8.027344 C 26.113281 8.261719 26.109375 8.414062 26.074219 8.691406 C 25.878906 8.886719 25.878906 8.886719 25.523438 8.898438 C 25.417969 8.894531 25.308594 8.890625 25.195312 8.886719 C 25.078125 8.671875 25.078125 8.671875 25 8.398438 C 25.125 8.070312 25.183594 7.933594 25.539062 7.859375 Z M 25.539062 7.859375 "/>
<path style=" stroke:none;fill-rule:nonzero;fill:rgb(0.784314%,1.568627%,1.960784%);fill-opacity:1;" d="M 24.414062 41.09375 C 24.707031 41.113281 24.707031 41.113281 24.902344 41.210938 C 25 41.445312 25.007812 41.570312 24.945312 41.816406 C 24.804688 41.992188 24.804688 41.992188 24.519531 42.082031 C 24.21875 42.089844 24.21875 42.089844 24.035156 41.980469 C 23.890625 41.738281 23.890625 41.585938 23.925781 41.308594 C 24.121094 41.113281 24.121094 41.113281 24.414062 41.09375 Z M 24.414062 41.09375 "/>
<path style=" stroke:none;fill-rule:nonzero;fill:rgb(1.960784%,1.960784%,1.960784%);fill-opacity:1;" d="M 33.398438 24.21875 C 33.59375 24.414062 33.59375 24.414062 33.636719 24.699219 C 33.59375 25 33.59375 25 33.375 25.195312 C 33.105469 25.292969 33.105469 25.292969 32.886719 25.25 C 32.714844 25.097656 32.714844 25.097656 32.625 24.8125 C 32.617188 24.511719 32.617188 24.511719 32.726562 24.328125 C 32.96875 24.183594 33.121094 24.183594 33.398438 24.21875 Z M 33.398438 24.21875 "/>
</g>
</svg>
