<?xml version="1.0" encoding="UTF-8"?>
<svg xmlns="http://www.w3.org/2000/svg" xmlns:xlink="http://www.w3.org/1999/xlink" width="50px" height="px" viewBox="0 0 50 50" version="1.1">
<g id="surface1">
<path style=" stroke:none;fill-rule:nonzero;fill:rgb(77.254902%,91.372549%,57.647059%);fill-opacity:1;" d="M 42.28125 2.984375 C 42.480469 2.984375 42.679688 2.980469 42.882812 2.980469 C 43.007812 2.980469 43.136719 2.980469 43.269531 2.980469 C 43.382812 2.980469 43.5 2.980469 43.621094 2.976562 C 44.140625 3.058594 44.421875 3.292969 44.761719 3.6875 C 44.953125 4.066406 44.972656 4.375 44.960938 4.789062 C 44.960938 4.859375 44.957031 4.933594 44.957031 5.007812 C 44.957031 5.238281 44.953125 5.46875 44.945312 5.699219 C 44.945312 5.859375 44.941406 6.015625 44.941406 6.171875 C 44.9375 6.554688 44.929688 6.941406 44.921875 7.324219 C 45.054688 7.324219 45.054688 7.324219 45.1875 7.320312 C 45.519531 7.316406 45.847656 7.316406 46.179688 7.3125 C 46.320312 7.3125 46.460938 7.3125 46.605469 7.308594 C 46.808594 7.308594 47.015625 7.304688 47.21875 7.304688 C 47.40625 7.304688 47.40625 7.304688 47.59375 7.300781 C 48.09375 7.332031 48.601562 7.402344 48.964844 7.773438 C 49.371094 8.292969 49.292969 8.976562 49.277344 9.605469 C 49.273438 9.828125 49.273438 10.046875 49.273438 10.269531 C 49.261719 11.472656 49.261719 11.472656 48.925781 11.914062 C 48.390625 12.296875 47.933594 12.320312 47.289062 12.3125 C 47.222656 12.308594 47.152344 12.308594 47.082031 12.308594 C 46.917969 12.308594 46.75 12.304688 46.582031 12.304688 C 46.582031 12.722656 46.582031 13.140625 46.582031 13.574219 C 46.742188 13.636719 46.902344 13.703125 47.070312 13.769531 C 47.328125 14.160156 47.292969 14.496094 47.292969 14.949219 C 47.292969 15.042969 47.292969 15.132812 47.292969 15.230469 C 47.292969 15.539062 47.292969 15.847656 47.292969 16.15625 C 47.292969 16.378906 47.296875 16.601562 47.296875 16.820312 C 47.296875 17.421875 47.296875 18.027344 47.296875 18.628906 C 47.296875 19.132812 47.300781 19.632812 47.300781 20.136719 C 47.300781 21.257812 47.300781 22.375 47.300781 23.496094 C 47.300781 23.5625 47.300781 23.628906 47.300781 23.699219 C 47.300781 23.765625 47.300781 23.835938 47.300781 23.902344 C 47.300781 24.992188 47.304688 26.082031 47.304688 27.167969 C 47.308594 28.289062 47.308594 29.40625 47.308594 30.523438 C 47.308594 31.152344 47.3125 31.78125 47.3125 32.40625 C 47.316406 33 47.316406 33.589844 47.3125 34.179688 C 47.3125 34.398438 47.3125 34.613281 47.316406 34.828125 C 47.320312 36.277344 47.304688 37.539062 46.289062 38.671875 C 46.238281 38.730469 46.1875 38.792969 46.136719 38.855469 C 45.410156 39.664062 44.417969 39.949219 43.359375 40.039062 C 42.570312 40.070312 41.777344 40.046875 40.984375 40.035156 C 40.746094 40.03125 40.503906 40.03125 40.265625 40.027344 C 39.878906 40.023438 39.496094 40.019531 39.113281 40.015625 C 38.160156 40.003906 37.210938 39.992188 36.261719 39.988281 C 36.191406 39.988281 36.125 39.984375 36.050781 39.984375 C 35.628906 39.984375 35.203125 39.980469 34.78125 39.976562 C 34.128906 39.972656 33.472656 39.96875 32.820312 39.960938 C 32.75 39.960938 32.675781 39.960938 32.601562 39.960938 C 31.421875 39.953125 30.246094 39.9375 29.070312 39.921875 C 27.855469 39.90625 26.644531 39.894531 25.433594 39.890625 C 24.6875 39.886719 23.941406 39.878906 23.195312 39.867188 C 22.625 39.855469 22.050781 39.851562 21.480469 39.855469 C 21.246094 39.855469 21.011719 39.851562 20.777344 39.84375 C 19.601562 39.773438 19.601562 39.773438 18.546875 40.199219 C 18.1875 40.582031 17.933594 41.011719 17.695312 41.480469 C 17.496094 41.851562 17.246094 42.183594 17 42.523438 C 16.945312 42.601562 16.890625 42.675781 16.835938 42.753906 C 16.429688 43.324219 16.023438 43.890625 15.613281 44.457031 C 15.339844 44.832031 15.070312 45.210938 14.804688 45.589844 C 14.753906 45.667969 14.699219 45.742188 14.644531 45.820312 C 14.542969 45.96875 14.441406 46.113281 14.34375 46.257812 C 14.296875 46.324219 14.25 46.390625 14.207031 46.457031 C 14.164062 46.515625 14.125 46.570312 14.085938 46.628906 C 13.882812 46.878906 13.703125 46.96875 13.390625 47.015625 C 12.992188 46.960938 12.84375 46.785156 12.597656 46.484375 C 12.328125 46.113281 12.078125 45.730469 11.828125 45.347656 C 11.753906 45.234375 11.675781 45.121094 11.601562 45.007812 C 11.4375 44.757812 11.273438 44.507812 11.109375 44.257812 C 10.871094 43.894531 10.628906 43.527344 10.386719 43.164062 C 10.179688 42.855469 9.976562 42.542969 9.769531 42.234375 C 9.671875 42.082031 9.570312 41.929688 9.46875 41.777344 C 9.324219 41.5625 9.183594 41.347656 9.042969 41.132812 C 8.980469 41.035156 8.980469 41.035156 8.914062 40.9375 C 8.703125 40.617188 8.523438 40.304688 8.398438 39.941406 C 8.234375 39.949219 8.234375 39.949219 8.066406 39.953125 C 7.65625 39.96875 7.246094 39.980469 6.835938 39.992188 C 6.660156 40 6.480469 40.003906 6.304688 40.011719 C 4.6875 40.070312 3.273438 40.074219 1.972656 38.984375 C 1.234375 38.289062 0.785156 37.433594 0.742188 36.414062 C 0.742188 36.226562 0.742188 36.039062 0.742188 35.851562 C 0.742188 35.746094 0.742188 35.644531 0.742188 35.539062 C 0.742188 35.191406 0.742188 34.847656 0.742188 34.5 C 0.742188 34.253906 0.742188 34.003906 0.738281 33.753906 C 0.738281 33.152344 0.738281 32.546875 0.738281 31.941406 C 0.738281 31.453125 0.738281 30.960938 0.738281 30.46875 C 0.738281 30.398438 0.738281 30.328125 0.738281 30.257812 C 0.738281 30.113281 0.738281 29.972656 0.738281 29.832031 C 0.734375 28.496094 0.738281 27.164062 0.738281 25.832031 C 0.738281 24.613281 0.738281 23.394531 0.734375 22.175781 C 0.734375 20.925781 0.730469 19.671875 0.734375 18.417969 C 0.734375 17.71875 0.734375 17.015625 0.730469 16.3125 C 0.730469 15.652344 0.730469 14.992188 0.730469 14.332031 C 0.730469 14.089844 0.730469 13.847656 0.730469 13.605469 C 0.730469 13.273438 0.730469 12.941406 0.730469 12.609375 C 0.730469 12.515625 0.730469 12.421875 0.730469 12.324219 C 0.742188 11.191406 1.152344 10.28125 1.941406 9.480469 C 2.953125 8.546875 3.996094 8.367188 5.339844 8.371094 C 5.523438 8.371094 5.523438 8.371094 5.714844 8.371094 C 6.054688 8.371094 6.394531 8.371094 6.738281 8.371094 C 7.105469 8.371094 7.476562 8.367188 7.84375 8.367188 C 8.566406 8.367188 9.289062 8.367188 10.011719 8.367188 C 10.597656 8.367188 11.183594 8.367188 11.769531 8.363281 C 13.433594 8.363281 15.097656 8.363281 16.761719 8.363281 C 16.851562 8.363281 16.9375 8.363281 17.03125 8.363281 C 17.167969 8.363281 17.167969 8.363281 17.304688 8.363281 C 18.757812 8.363281 20.214844 8.359375 21.671875 8.359375 C 23.164062 8.355469 24.660156 8.355469 26.152344 8.355469 C 26.992188 8.355469 27.832031 8.351562 28.671875 8.351562 C 29.386719 8.347656 30.097656 8.347656 30.8125 8.351562 C 31.175781 8.351562 31.542969 8.351562 31.90625 8.347656 C 32.300781 8.347656 32.695312 8.347656 33.089844 8.351562 C 33.207031 8.347656 33.320312 8.347656 33.441406 8.347656 C 33.597656 8.347656 33.597656 8.347656 33.761719 8.351562 C 33.851562 8.351562 33.941406 8.351562 34.035156 8.351562 C 34.351562 8.414062 34.472656 8.535156 34.667969 8.789062 C 34.667969 8.886719 34.667969 8.980469 34.667969 9.082031 C 34.988281 9.082031 35.3125 9.082031 35.644531 9.082031 C 35.636719 8.929688 35.636719 8.929688 35.625 8.777344 C 35.644531 8.359375 35.707031 8.15625 35.9375 7.8125 C 36.515625 7.359375 36.914062 7.3125 37.636719 7.316406 C 37.738281 7.316406 37.738281 7.316406 37.84375 7.316406 C 38.0625 7.316406 38.28125 7.316406 38.5 7.316406 C 38.648438 7.320312 38.796875 7.320312 38.949219 7.320312 C 39.3125 7.320312 39.675781 7.320312 40.039062 7.324219 C 40.035156 7.222656 40.035156 7.125 40.03125 7.019531 C 40.027344 6.644531 40.019531 6.269531 40.019531 5.894531 C 40.015625 5.734375 40.011719 5.574219 40.007812 5.410156 C 40.003906 5.175781 40.003906 4.945312 40 4.710938 C 40 4.640625 39.996094 4.566406 39.996094 4.492188 C 39.996094 3.988281 40.097656 3.699219 40.429688 3.320312 C 41.015625 2.933594 41.597656 2.980469 42.28125 2.984375 Z M 42.28125 2.984375 "/>
<path style=" stroke:none;fill-rule:nonzero;fill:rgb(97.254902%,78.823529%,32.941176%);fill-opacity:1;" d="M 12.285156 22.59375 C 12.757812 22.941406 13.125 23.359375 13.476562 23.828125 C 13.820312 23.675781 13.980469 23.492188 14.21875 23.199219 C 14.671875 22.679688 15.066406 22.433594 15.761719 22.367188 C 16.851562 22.328125 18.105469 22.3125 19.042969 22.949219 C 19.230469 23.148438 19.328125 23.257812 19.351562 23.535156 C 19.335938 23.664062 19.324219 23.796875 19.308594 23.925781 C 19.351562 24.222656 19.5 24.324219 19.726562 24.511719 C 19.976562 24.5625 19.976562 24.5625 20.25 24.546875 C 20.351562 24.546875 20.453125 24.546875 20.554688 24.546875 C 20.765625 24.542969 20.976562 24.539062 21.1875 24.535156 C 21.730469 24.535156 22.082031 24.558594 22.503906 24.921875 C 22.621094 25.042969 22.738281 25.167969 22.851562 25.292969 C 22.945312 25.386719 23.035156 25.480469 23.128906 25.578125 C 23.285156 25.746094 23.445312 25.917969 23.605469 26.089844 C 23.804688 26.289062 23.804688 26.289062 24.027344 26.273438 C 24.277344 26.140625 24.4375 25.976562 24.632812 25.769531 C 24.785156 25.609375 24.941406 25.449219 25.097656 25.292969 C 25.148438 25.234375 25.203125 25.175781 25.257812 25.113281 C 25.644531 24.714844 25.917969 24.566406 26.476562 24.539062 C 26.691406 24.539062 26.90625 24.542969 27.125 24.546875 C 27.914062 24.605469 27.914062 24.605469 28.589844 24.285156 C 28.734375 24.019531 28.734375 24.019531 28.703125 23.679688 C 28.710938 23.339844 28.710938 23.339844 28.894531 23.078125 C 29.703125 22.480469 30.519531 22.390625 31.507812 22.394531 C 31.621094 22.390625 31.734375 22.386719 31.855469 22.382812 C 32.429688 22.378906 32.816406 22.398438 33.261719 22.78125 C 33.375 22.898438 33.488281 23.019531 33.59375 23.144531 C 33.664062 23.21875 33.734375 23.289062 33.804688 23.363281 C 33.910156 23.480469 34.015625 23.597656 34.117188 23.710938 C 34.269531 23.851562 34.269531 23.851562 34.464844 23.804688 C 34.804688 23.679688 35.023438 23.402344 35.265625 23.144531 C 35.914062 22.46875 35.914062 22.46875 36.277344 22.445312 C 36.605469 22.441406 36.933594 22.4375 37.261719 22.4375 C 37.375 22.433594 37.488281 22.433594 37.605469 22.429688 C 38.78125 22.425781 39.761719 22.730469 40.648438 23.539062 C 41.679688 24.636719 41.925781 25.792969 41.921875 27.257812 C 41.921875 27.378906 41.921875 27.5 41.921875 27.625 C 41.921875 27.945312 41.921875 28.265625 41.917969 28.585938 C 41.917969 28.785156 41.917969 28.980469 41.921875 29.179688 C 41.921875 29.558594 41.921875 29.9375 41.921875 30.316406 C 41.921875 30.433594 41.921875 30.550781 41.921875 30.671875 C 41.921875 30.832031 41.921875 30.832031 41.917969 31 C 41.917969 31.097656 41.917969 31.191406 41.917969 31.289062 C 41.894531 31.554688 41.847656 31.710938 41.699219 31.933594 C 41.339844 32.171875 41.070312 32.160156 40.65625 32.160156 C 40.539062 32.160156 40.539062 32.160156 40.421875 32.160156 C 40.171875 32.164062 39.917969 32.164062 39.664062 32.164062 C 39.488281 32.167969 39.3125 32.167969 39.136719 32.167969 C 38.769531 32.167969 38.398438 32.171875 38.03125 32.171875 C 37.558594 32.171875 37.085938 32.175781 36.613281 32.179688 C 36.253906 32.183594 35.890625 32.183594 35.527344 32.183594 C 35.351562 32.183594 35.175781 32.183594 35.003906 32.1875 C 34.761719 32.1875 34.515625 32.1875 34.273438 32.1875 C 34.203125 32.1875 34.128906 32.191406 34.054688 32.191406 C 33.667969 32.1875 33.507812 32.140625 33.203125 31.894531 C 33.007812 31.640625 33.007812 31.640625 33.007812 31.445312 C 32.8125 31.445312 32.621094 31.445312 32.421875 31.445312 C 32.425781 31.550781 32.425781 31.660156 32.429688 31.769531 C 32.4375 32.167969 32.445312 32.566406 32.449219 32.960938 C 32.449219 33.132812 32.453125 33.304688 32.457031 33.476562 C 32.464844 33.726562 32.46875 33.972656 32.46875 34.21875 C 32.472656 34.296875 32.472656 34.375 32.476562 34.453125 C 32.476562 34.523438 32.476562 34.597656 32.476562 34.671875 C 32.476562 34.734375 32.480469 34.796875 32.480469 34.863281 C 32.382812 35.183594 32.1875 35.335938 31.933594 35.546875 C 31.625 35.609375 31.625 35.609375 31.273438 35.609375 C 31.207031 35.609375 31.144531 35.609375 31.078125 35.613281 C 30.859375 35.613281 30.640625 35.613281 30.425781 35.613281 C 30.269531 35.613281 30.113281 35.613281 29.957031 35.613281 C 29.53125 35.617188 29.109375 35.617188 28.6875 35.617188 C 28.332031 35.613281 27.980469 35.617188 27.625 35.617188 C 26.789062 35.617188 25.957031 35.617188 25.121094 35.617188 C 24.261719 35.613281 23.402344 35.617188 22.542969 35.617188 C 21.800781 35.621094 21.0625 35.621094 20.324219 35.621094 C 19.882812 35.621094 19.441406 35.621094 19 35.625 C 18.585938 35.625 18.171875 35.625 17.753906 35.621094 C 17.601562 35.621094 17.449219 35.621094 17.300781 35.625 C 16.15625 35.632812 16.15625 35.632812 15.816406 35.425781 C 15.59375 35.175781 15.464844 34.90625 15.472656 34.570312 C 15.472656 34.464844 15.472656 34.464844 15.472656 34.359375 C 15.472656 34.285156 15.476562 34.210938 15.480469 34.132812 C 15.480469 34.058594 15.480469 33.980469 15.480469 33.902344 C 15.484375 33.65625 15.492188 33.410156 15.496094 33.167969 C 15.5 33 15.5 32.832031 15.503906 32.667969 C 15.507812 32.257812 15.515625 31.851562 15.527344 31.445312 C 15.121094 31.503906 15.121094 31.503906 14.824219 31.785156 C 14.765625 31.867188 14.707031 31.949219 14.648438 32.03125 C 14.351562 32.179688 14.046875 32.144531 13.722656 32.148438 C 13.644531 32.148438 13.570312 32.148438 13.492188 32.148438 C 13.242188 32.152344 12.992188 32.152344 12.742188 32.15625 C 12.65625 32.15625 12.570312 32.15625 12.484375 32.15625 C 12.03125 32.160156 11.578125 32.160156 11.128906 32.164062 C 10.660156 32.164062 10.195312 32.167969 9.726562 32.175781 C 9.367188 32.175781 9.007812 32.179688 8.648438 32.179688 C 8.476562 32.179688 8.304688 32.179688 8.132812 32.183594 C 7.890625 32.1875 7.652344 32.1875 7.410156 32.1875 C 7.339844 32.1875 7.269531 32.1875 7.195312 32.191406 C 6.828125 32.1875 6.652344 32.136719 6.351562 31.917969 C 6.125 31.601562 6.089844 31.457031 6.09375 31.070312 C 6.089844 30.902344 6.089844 30.902344 6.089844 30.730469 C 6.089844 30.613281 6.09375 30.492188 6.09375 30.367188 C 6.09375 30.242188 6.09375 30.117188 6.09375 29.988281 C 6.09375 29.722656 6.097656 29.460938 6.097656 29.195312 C 6.101562 28.859375 6.105469 28.523438 6.101562 28.1875 C 6.101562 27.863281 6.105469 27.539062 6.105469 27.21875 C 6.105469 27.097656 6.105469 26.980469 6.105469 26.855469 C 6.125 25.539062 6.488281 24.488281 7.386719 23.511719 C 8.523438 22.425781 10.832031 21.875 12.285156 22.59375 Z M 12.285156 22.59375 "/>
<path style=" stroke:none;fill-rule:nonzero;fill:rgb(1.176471%,1.568627%,0.784314%);fill-opacity:1;" d="M 5.339844 8.371094 C 5.523438 8.371094 5.523438 8.371094 5.714844 8.371094 C 6.054688 8.371094 6.394531 8.371094 6.738281 8.371094 C 7.105469 8.371094 7.476562 8.367188 7.84375 8.367188 C 8.566406 8.367188 9.289062 8.367188 10.011719 8.367188 C 10.597656 8.367188 11.183594 8.367188 11.769531 8.363281 C 13.433594 8.363281 15.097656 8.363281 16.761719 8.363281 C 16.851562 8.363281 16.9375 8.363281 17.03125 8.363281 C 17.167969 8.363281 17.167969 8.363281 17.304688 8.363281 C 18.757812 8.363281 20.214844 8.359375 21.671875 8.359375 C 23.164062 8.355469 24.660156 8.355469 26.152344 8.355469 C 26.992188 8.355469 27.832031 8.351562 28.671875 8.351562 C 29.386719 8.347656 30.097656 8.347656 30.8125 8.351562 C 31.175781 8.351562 31.542969 8.351562 31.90625 8.347656 C 32.300781 8.347656 32.695312 8.347656 33.089844 8.351562 C 33.207031 8.347656 33.320312 8.347656 33.441406 8.347656 C 33.597656 8.347656 33.597656 8.347656 33.761719 8.351562 C 33.851562 8.351562 33.941406 8.351562 34.035156 8.351562 C 34.355469 8.414062 34.472656 8.535156 34.667969 8.789062 C 34.675781 9.175781 34.640625 9.386719 34.394531 9.6875 C 33.910156 9.960938 33.441406 9.917969 32.890625 9.910156 C 32.769531 9.914062 32.644531 9.914062 32.519531 9.914062 C 32.179688 9.914062 31.839844 9.914062 31.503906 9.914062 C 31.136719 9.910156 30.769531 9.914062 30.40625 9.914062 C 29.769531 9.914062 29.136719 9.914062 28.503906 9.914062 C 27.585938 9.914062 26.667969 9.914062 25.75 9.914062 C 24.257812 9.917969 22.769531 9.917969 21.277344 9.917969 C 21.144531 9.917969 21.144531 9.917969 21.007812 9.917969 C 20.648438 9.917969 20.285156 9.917969 19.925781 9.917969 C 18.929688 9.917969 17.9375 9.917969 16.941406 9.917969 C 16.855469 9.917969 16.765625 9.917969 16.671875 9.917969 C 15.1875 9.917969 13.703125 9.921875 12.222656 9.921875 C 11.304688 9.925781 10.390625 9.925781 9.476562 9.921875 C 8.847656 9.921875 8.21875 9.921875 7.59375 9.925781 C 7.230469 9.925781 6.871094 9.925781 6.507812 9.921875 C 6.117188 9.921875 5.722656 9.921875 5.332031 9.925781 C 5.160156 9.921875 5.160156 9.921875 4.984375 9.921875 C 4.136719 9.929688 3.472656 10.03125 2.832031 10.644531 C 2 11.65625 2.164062 12.976562 2.171875 14.203125 C 2.171875 14.445312 2.171875 14.6875 2.171875 14.929688 C 2.167969 15.515625 2.171875 16.105469 2.171875 16.691406 C 2.175781 17.375 2.175781 18.0625 2.175781 18.746094 C 2.175781 19.96875 2.175781 21.191406 2.179688 22.414062 C 2.183594 23.597656 2.183594 24.78125 2.183594 25.964844 C 2.183594 27.257812 2.183594 28.550781 2.183594 29.839844 C 2.1875 29.980469 2.1875 30.117188 2.1875 30.253906 C 2.1875 30.324219 2.1875 30.390625 2.1875 30.460938 C 2.1875 30.9375 2.1875 31.414062 2.1875 31.890625 C 2.1875 32.53125 2.1875 33.175781 2.191406 33.816406 C 2.191406 34.050781 2.191406 34.289062 2.191406 34.523438 C 2.191406 34.84375 2.191406 35.164062 2.195312 35.488281 C 2.195312 35.582031 2.195312 35.671875 2.191406 35.769531 C 2.203125 36.53125 2.429688 37.085938 2.84375 37.71875 C 3.453125 38.300781 4.09375 38.535156 4.925781 38.519531 C 5.074219 38.511719 5.074219 38.511719 5.222656 38.507812 C 5.328125 38.503906 5.429688 38.503906 5.535156 38.5 C 5.863281 38.496094 6.191406 38.488281 6.519531 38.476562 C 6.953125 38.464844 7.382812 38.453125 7.816406 38.445312 C 7.964844 38.441406 7.964844 38.441406 8.117188 38.433594 C 8.566406 38.425781 8.820312 38.4375 9.210938 38.671875 C 9.539062 39.003906 9.773438 39.398438 10.011719 39.796875 C 10.113281 39.964844 10.21875 40.132812 10.320312 40.296875 C 10.375 40.382812 10.425781 40.46875 10.480469 40.558594 C 10.75 40.988281 11.027344 41.40625 11.308594 41.824219 C 11.363281 41.90625 11.417969 41.988281 11.472656 42.074219 C 11.640625 42.324219 11.808594 42.574219 11.976562 42.824219 C 12.089844 42.996094 12.207031 43.167969 12.320312 43.339844 C 12.570312 43.714844 12.820312 44.085938 13.070312 44.460938 C 13.175781 44.613281 13.277344 44.769531 13.378906 44.921875 C 13.894531 44.308594 14.355469 43.671875 14.804688 43.011719 C 15.195312 42.433594 15.605469 41.867188 16.015625 41.304688 C 16.476562 40.667969 16.917969 40.019531 17.351562 39.367188 C 17.425781 39.253906 17.425781 39.253906 17.503906 39.140625 C 17.546875 39.078125 17.589844 39.011719 17.632812 38.945312 C 17.84375 38.683594 18.039062 38.496094 18.375 38.441406 C 18.453125 38.441406 18.53125 38.441406 18.609375 38.441406 C 18.699219 38.441406 18.789062 38.441406 18.882812 38.441406 C 18.980469 38.441406 19.078125 38.445312 19.179688 38.445312 C 19.28125 38.445312 19.386719 38.445312 19.496094 38.445312 C 19.84375 38.445312 20.195312 38.449219 20.546875 38.453125 C 20.796875 38.453125 21.050781 38.453125 21.300781 38.457031 C 21.84375 38.457031 22.382812 38.460938 22.925781 38.464844 C 23.710938 38.46875 24.496094 38.472656 25.28125 38.472656 C 26.554688 38.476562 27.828125 38.480469 29.101562 38.488281 C 29.179688 38.488281 29.253906 38.488281 29.332031 38.488281 C 30.414062 38.492188 31.496094 38.496094 32.578125 38.503906 C 32.652344 38.503906 32.730469 38.503906 32.808594 38.503906 C 32.882812 38.503906 32.960938 38.503906 33.039062 38.507812 C 34.304688 38.511719 35.574219 38.515625 36.84375 38.519531 C 37.625 38.523438 38.40625 38.523438 39.1875 38.53125 C 39.789062 38.535156 40.390625 38.539062 40.988281 38.539062 C 41.234375 38.539062 41.480469 38.539062 41.726562 38.542969 C 43.480469 38.617188 43.480469 38.617188 45.019531 37.890625 C 45.460938 37.378906 45.714844 36.90625 45.714844 36.222656 C 45.714844 36.144531 45.714844 36.066406 45.714844 35.984375 C 45.714844 35.855469 45.714844 35.855469 45.714844 35.726562 C 45.714844 35.632812 45.714844 35.542969 45.714844 35.445312 C 45.71875 35.140625 45.71875 34.832031 45.71875 34.523438 C 45.71875 34.300781 45.71875 34.082031 45.71875 33.859375 C 45.71875 33.386719 45.71875 32.910156 45.71875 32.433594 C 45.71875 31.683594 45.722656 30.933594 45.722656 30.179688 C 45.722656 29.925781 45.726562 29.667969 45.726562 29.410156 C 45.726562 29.28125 45.726562 29.152344 45.726562 29.019531 C 45.726562 28.355469 45.730469 27.6875 45.730469 27.023438 C 45.730469 26.957031 45.730469 26.886719 45.730469 26.820312 C 45.734375 25.734375 45.734375 24.652344 45.734375 23.570312 C 45.734375 22.457031 45.738281 21.34375 45.742188 20.234375 C 45.742188 19.609375 45.746094 18.984375 45.746094 18.359375 C 45.742188 17.773438 45.746094 17.183594 45.746094 16.597656 C 45.75 16.382812 45.75 16.167969 45.746094 15.949219 C 45.746094 15.65625 45.75 15.363281 45.75 15.070312 C 45.75 14.984375 45.75 14.898438 45.75 14.808594 C 45.753906 14.414062 45.769531 14.210938 45.980469 13.867188 C 46.191406 13.671875 46.191406 13.671875 46.476562 13.5625 C 46.777344 13.574219 46.777344 13.574219 47.035156 13.761719 C 47.351562 14.171875 47.332031 14.46875 47.328125 14.972656 C 47.328125 15.066406 47.328125 15.15625 47.328125 15.253906 C 47.332031 15.5625 47.328125 15.871094 47.328125 16.179688 C 47.328125 16.402344 47.328125 16.621094 47.328125 16.84375 C 47.332031 17.445312 47.328125 18.046875 47.328125 18.648438 C 47.328125 19.277344 47.328125 19.910156 47.328125 20.539062 C 47.328125 21.597656 47.328125 22.65625 47.324219 23.714844 C 47.320312 24.800781 47.320312 25.890625 47.320312 26.976562 C 47.324219 28.289062 47.324219 29.601562 47.320312 30.914062 C 47.320312 31.414062 47.320312 31.914062 47.320312 32.414062 C 47.324219 33.003906 47.320312 33.59375 47.320312 34.183594 C 47.316406 34.402344 47.316406 34.617188 47.320312 34.832031 C 47.324219 36.277344 47.300781 37.542969 46.289062 38.671875 C 46.238281 38.730469 46.1875 38.792969 46.136719 38.855469 C 45.410156 39.664062 44.417969 39.949219 43.359375 40.039062 C 42.570312 40.070312 41.777344 40.046875 40.984375 40.035156 C 40.746094 40.03125 40.503906 40.03125 40.265625 40.027344 C 39.878906 40.023438 39.496094 40.019531 39.113281 40.015625 C 38.160156 40.003906 37.210938 39.992188 36.261719 39.988281 C 36.191406 39.988281 36.125 39.984375 36.050781 39.984375 C 35.628906 39.984375 35.203125 39.980469 34.78125 39.976562 C 34.128906 39.972656 33.472656 39.96875 32.820312 39.960938 C 32.75 39.960938 32.675781 39.960938 32.601562 39.960938 C 31.421875 39.953125 30.246094 39.9375 29.070312 39.921875 C 27.855469 39.90625 26.644531 39.894531 25.433594 39.890625 C 24.6875 39.886719 23.941406 39.878906 23.195312 39.867188 C 22.625 39.855469 22.050781 39.851562 21.480469 39.855469 C 21.246094 39.855469 21.011719 39.851562 20.777344 39.84375 C 19.601562 39.773438 19.601562 39.773438 18.546875 40.199219 C 18.1875 40.582031 17.933594 41.011719 17.695312 41.480469 C 17.496094 41.851562 17.246094 42.183594 17 42.523438 C 16.945312 42.601562 16.890625 42.675781 16.835938 42.753906 C 16.429688 43.324219 16.023438 43.890625 15.613281 44.457031 C 15.339844 44.832031 15.070312 45.210938 14.804688 45.589844 C 14.753906 45.667969 14.699219 45.742188 14.644531 45.820312 C 14.542969 45.96875 14.441406 46.113281 14.34375 46.257812 C 14.296875 46.324219 14.25 46.390625 14.207031 46.457031 C 14.164062 46.515625 14.125 46.570312 14.085938 46.628906 C 13.882812 46.878906 13.703125 46.96875 13.390625 47.015625 C 12.992188 46.960938 12.84375 46.785156 12.597656 46.484375 C 12.328125 46.113281 12.078125 45.730469 11.828125 45.347656 C 11.753906 45.234375 11.675781 45.121094 11.601562 45.007812 C 11.4375 44.757812 11.273438 44.507812 11.109375 44.257812 C 10.871094 43.894531 10.628906 43.527344 10.386719 43.164062 C 10.179688 42.855469 9.976562 42.542969 9.769531 42.234375 C 9.671875 42.082031 9.570312 41.929688 9.46875 41.777344 C 9.324219 41.5625 9.183594 41.347656 9.042969 41.132812 C 8.980469 41.035156 8.980469 41.035156 8.914062 40.9375 C 8.703125 40.617188 8.523438 40.304688 8.398438 39.941406 C 8.234375 39.949219 8.234375 39.949219 8.066406 39.953125 C 7.65625 39.96875 7.246094 39.980469 6.835938 39.992188 C 6.660156 40 6.480469 40.003906 6.304688 40.011719 C 4.6875 40.070312 3.273438 40.074219 1.972656 38.984375 C 1.234375 38.289062 0.785156 37.433594 0.742188 36.414062 C 0.742188 36.226562 0.742188 36.039062 0.742188 35.851562 C 0.742188 35.746094 0.742188 35.644531 0.742188 35.539062 C 0.742188 35.191406 0.742188 34.847656 0.742188 34.5 C 0.742188 34.253906 0.742188 34.003906 0.738281 33.753906 C 0.738281 33.152344 0.738281 32.546875 0.738281 31.941406 C 0.738281 31.453125 0.738281 30.960938 0.738281 30.46875 C 0.738281 30.398438 0.738281 30.328125 0.738281 30.257812 C 0.738281 30.113281 0.738281 29.972656 0.738281 29.832031 C 0.734375 28.496094 0.738281 27.164062 0.738281 25.832031 C 0.738281 24.613281 0.738281 23.394531 0.734375 22.175781 C 0.734375 20.925781 0.730469 19.671875 0.734375 18.417969 C 0.734375 17.71875 0.734375 17.015625 0.730469 16.3125 C 0.730469 15.652344 0.730469 14.992188 0.730469 14.332031 C 0.730469 14.089844 0.730469 13.847656 0.730469 13.605469 C 0.730469 13.273438 0.730469 12.941406 0.730469 12.609375 C 0.730469 12.515625 0.730469 12.421875 0.730469 12.324219 C 0.742188 11.191406 1.152344 10.28125 1.941406 9.480469 C 2.953125 8.546875 3.996094 8.367188 5.339844 8.371094 Z M 5.339844 8.371094 "/>
<path style=" stroke:none;fill-rule:nonzero;fill:rgb(0.392157%,0.392157%,0.392157%);fill-opacity:1;" d="M 42.28125 2.984375 C 42.480469 2.984375 42.679688 2.980469 42.882812 2.980469 C 43.007812 2.980469 43.136719 2.980469 43.269531 2.980469 C 43.382812 2.980469 43.5 2.980469 43.621094 2.976562 C 44.140625 3.058594 44.421875 3.292969 44.761719 3.6875 C 44.953125 4.066406 44.972656 4.375 44.960938 4.789062 C 44.960938 4.859375 44.957031 4.933594 44.957031 5.007812 C 44.957031 5.238281 44.953125 5.46875 44.945312 5.699219 C 44.945312 5.859375 44.941406 6.015625 44.941406 6.171875 C 44.9375 6.554688 44.929688 6.941406 44.921875 7.324219 C 45.054688 7.324219 45.054688 7.324219 45.1875 7.320312 C 45.519531 7.316406 45.847656 7.316406 46.179688 7.3125 C 46.320312 7.3125 46.460938 7.3125 46.605469 7.308594 C 46.808594 7.308594 47.015625 7.304688 47.21875 7.304688 C 47.34375 7.304688 47.464844 7.304688 47.59375 7.300781 C 48.09375 7.332031 48.601562 7.402344 48.964844 7.773438 C 49.371094 8.292969 49.292969 8.976562 49.277344 9.605469 C 49.273438 9.828125 49.273438 10.046875 49.273438 10.269531 C 49.261719 11.472656 49.261719 11.472656 48.925781 11.914062 C 47.847656 12.6875 46.082031 12.285156 44.824219 12.207031 C 44.824219 12.308594 44.828125 12.40625 44.828125 12.511719 C 44.835938 12.886719 44.835938 13.261719 44.839844 13.636719 C 44.839844 13.796875 44.84375 13.957031 44.847656 14.121094 C 44.851562 14.355469 44.851562 14.585938 44.851562 14.820312 C 44.855469 14.890625 44.855469 14.964844 44.855469 15.039062 C 44.859375 15.503906 44.78125 15.816406 44.53125 16.210938 C 43.917969 16.726562 43.246094 16.65625 42.472656 16.644531 C 42.351562 16.644531 42.230469 16.644531 42.101562 16.644531 C 41.492188 16.640625 41.066406 16.628906 40.527344 16.308594 C 40.070312 15.8125 40.023438 15.425781 40.03125 14.773438 C 40.03125 14.699219 40.03125 14.625 40.03125 14.550781 C 40.03125 14.316406 40.03125 14.082031 40.03125 13.847656 C 40.035156 13.691406 40.035156 13.53125 40.035156 13.371094 C 40.035156 12.984375 40.035156 12.59375 40.039062 12.207031 C 39.886719 12.210938 39.886719 12.210938 39.734375 12.214844 C 39.359375 12.21875 38.984375 12.226562 38.609375 12.226562 C 38.449219 12.230469 38.289062 12.234375 38.125 12.238281 C 37.890625 12.242188 37.660156 12.242188 37.425781 12.246094 C 37.320312 12.25 37.320312 12.25 37.207031 12.25 C 36.703125 12.25 36.417969 12.144531 36.035156 11.816406 C 35.625 11.296875 35.679688 10.710938 35.664062 10.070312 C 35.65625 9.871094 35.648438 9.667969 35.640625 9.46875 C 35.636719 9.339844 35.632812 9.210938 35.628906 9.078125 C 35.625 8.960938 35.621094 8.847656 35.617188 8.726562 C 35.648438 8.355469 35.742188 8.128906 35.9375 7.8125 C 36.515625 7.359375 36.914062 7.3125 37.636719 7.316406 C 37.738281 7.316406 37.738281 7.316406 37.84375 7.316406 C 38.0625 7.316406 38.28125 7.316406 38.5 7.316406 C 38.648438 7.320312 38.796875 7.320312 38.949219 7.320312 C 39.3125 7.320312 39.675781 7.320312 40.039062 7.324219 C 40.035156 7.222656 40.035156 7.125 40.03125 7.019531 C 40.027344 6.644531 40.019531 6.269531 40.019531 5.894531 C 40.015625 5.734375 40.011719 5.574219 40.007812 5.410156 C 40.003906 5.175781 40.003906 4.945312 40 4.710938 C 40 4.640625 39.996094 4.566406 39.996094 4.492188 C 39.996094 3.988281 40.097656 3.699219 40.429688 3.320312 C 41.015625 2.933594 41.597656 2.980469 42.28125 2.984375 Z M 42.28125 2.984375 "/>
<path style=" stroke:none;fill-rule:nonzero;fill:rgb(98.039216%,79.215686%,33.333333%);fill-opacity:1;" d="M 31.480469 22.40625 C 31.597656 22.402344 31.714844 22.394531 31.835938 22.390625 C 32.414062 22.382812 32.8125 22.390625 33.261719 22.78125 C 33.375 22.898438 33.488281 23.019531 33.59375 23.144531 C 33.699219 23.253906 33.699219 23.253906 33.804688 23.363281 C 33.910156 23.480469 34.015625 23.597656 34.117188 23.710938 C 34.269531 23.851562 34.269531 23.851562 34.464844 23.804688 C 34.804688 23.679688 35.023438 23.402344 35.265625 23.144531 C 35.914062 22.46875 35.914062 22.46875 36.277344 22.445312 C 36.605469 22.441406 36.933594 22.4375 37.261719 22.4375 C 37.375 22.433594 37.488281 22.433594 37.605469 22.429688 C 38.78125 22.425781 39.761719 22.730469 40.648438 23.539062 C 41.679688 24.636719 41.925781 25.792969 41.921875 27.257812 C 41.921875 27.378906 41.921875 27.5 41.921875 27.625 C 41.921875 27.945312 41.921875 28.265625 41.917969 28.585938 C 41.917969 28.785156 41.917969 28.980469 41.921875 29.179688 C 41.921875 29.558594 41.921875 29.9375 41.921875 30.316406 C 41.921875 30.433594 41.921875 30.550781 41.921875 30.671875 C 41.921875 30.832031 41.921875 30.832031 41.917969 31 C 41.917969 31.097656 41.917969 31.191406 41.917969 31.289062 C 41.894531 31.554688 41.847656 31.710938 41.699219 31.933594 C 41.339844 32.171875 41.070312 32.160156 40.65625 32.160156 C 40.539062 32.160156 40.539062 32.160156 40.421875 32.160156 C 40.171875 32.164062 39.917969 32.164062 39.664062 32.164062 C 39.488281 32.167969 39.3125 32.167969 39.136719 32.167969 C 38.769531 32.167969 38.398438 32.171875 38.03125 32.171875 C 37.558594 32.171875 37.085938 32.175781 36.613281 32.179688 C 36.253906 32.183594 35.890625 32.183594 35.527344 32.183594 C 35.351562 32.183594 35.175781 32.183594 35.003906 32.1875 C 34.761719 32.1875 34.515625 32.1875 34.273438 32.1875 C 34.203125 32.1875 34.128906 32.191406 34.054688 32.191406 C 33.667969 32.1875 33.507812 32.140625 33.203125 31.894531 C 33.007812 31.640625 33.007812 31.640625 33.007812 31.445312 C 32.8125 31.445312 32.621094 31.445312 32.421875 31.445312 C 32.421875 31.367188 32.417969 31.292969 32.417969 31.214844 C 32.410156 30.863281 32.402344 30.511719 32.390625 30.15625 C 32.386719 29.976562 32.386719 29.976562 32.382812 29.792969 C 32.339844 28.257812 32.042969 27.023438 30.976562 25.886719 C 30.222656 25.179688 29.289062 24.902344 28.320312 24.609375 C 28.367188 24.535156 28.414062 24.460938 28.460938 24.382812 C 28.644531 24.066406 28.710938 23.867188 28.71875 23.5 C 28.816406 23.109375 28.851562 23.074219 29.167969 22.871094 C 29.917969 22.441406 30.636719 22.417969 31.480469 22.40625 Z M 31.480469 22.40625 "/>
<path style=" stroke:none;fill-rule:nonzero;fill:rgb(39.215686%,81.960784%,93.333333%);fill-opacity:1;" d="M 21.765625 26.070312 C 22.121094 26.347656 22.382812 26.699219 22.65625 27.050781 C 22.800781 27.1875 22.949219 27.320312 23.101562 27.449219 C 23.285156 27.605469 23.460938 27.757812 23.632812 27.929688 C 23.960938 27.988281 24.199219 28.003906 24.492188 27.820312 C 24.8125 27.542969 25.09375 27.253906 25.359375 26.917969 C 25.792969 26.390625 26.160156 25.96875 26.867188 25.882812 C 28.054688 25.824219 29.085938 26.003906 30.015625 26.769531 C 30.554688 27.285156 31.03125 28 31.066406 28.765625 C 31.066406 28.867188 31.066406 28.964844 31.066406 29.070312 C 31.066406 29.183594 31.066406 29.296875 31.066406 29.414062 C 31.066406 29.535156 31.066406 29.65625 31.0625 29.785156 C 31.0625 29.972656 31.0625 29.972656 31.0625 30.164062 C 31.0625 30.496094 31.0625 30.828125 31.0625 31.160156 C 31.058594 31.5 31.058594 31.839844 31.058594 32.179688 C 31.058594 32.847656 31.058594 33.511719 31.054688 34.179688 C 30.25 34.179688 29.445312 34.179688 28.613281 34.179688 C 28.609375 33.867188 28.605469 33.550781 28.601562 33.230469 C 28.597656 32.925781 28.59375 32.621094 28.585938 32.316406 C 28.585938 32.105469 28.582031 31.894531 28.578125 31.683594 C 28.578125 31.382812 28.570312 31.078125 28.566406 30.773438 C 28.566406 30.679688 28.5625 30.585938 28.5625 30.488281 C 28.5625 30.402344 28.558594 30.3125 28.558594 30.222656 C 28.558594 30.144531 28.554688 30.066406 28.554688 29.988281 C 28.503906 29.734375 28.429688 29.644531 28.222656 29.492188 C 27.824219 29.441406 27.824219 29.441406 27.472656 29.613281 C 27.308594 29.832031 27.304688 29.953125 27.300781 30.222656 C 27.300781 30.3125 27.296875 30.398438 27.296875 30.492188 C 27.292969 30.632812 27.292969 30.632812 27.292969 30.773438 C 27.292969 30.859375 27.289062 30.945312 27.289062 31.035156 C 27.285156 31.359375 27.28125 31.679688 27.277344 32 C 27.265625 32.71875 27.257812 33.4375 27.246094 34.179688 C 25.085938 34.179688 22.929688 34.179688 20.703125 34.179688 C 20.671875 31.945312 20.671875 31.945312 20.664062 31.242188 C 20.660156 31.058594 20.660156 30.871094 20.65625 30.6875 C 20.65625 30.59375 20.652344 30.496094 20.652344 30.398438 C 20.652344 30.308594 20.648438 30.214844 20.648438 30.121094 C 20.644531 30.003906 20.644531 30.003906 20.644531 29.882812 C 20.621094 29.648438 20.621094 29.648438 20.3125 29.492188 C 20.019531 29.441406 20.019531 29.441406 19.726562 29.492188 C 19.523438 29.667969 19.445312 29.816406 19.40625 30.082031 C 19.390625 30.332031 19.386719 30.585938 19.382812 30.839844 C 19.382812 30.933594 19.378906 31.023438 19.378906 31.121094 C 19.371094 31.414062 19.371094 31.710938 19.367188 32.007812 C 19.363281 32.207031 19.359375 32.40625 19.355469 32.609375 C 19.347656 33.101562 19.34375 33.589844 19.335938 34.082031 C 18.5625 34.082031 17.789062 34.082031 16.992188 34.082031 C 16.984375 33.371094 16.980469 32.660156 16.976562 31.949219 C 16.976562 31.621094 16.972656 31.289062 16.96875 30.960938 C 16.964844 30.578125 16.964844 30.199219 16.964844 29.820312 C 16.960938 29.703125 16.960938 29.585938 16.960938 29.464844 C 16.957031 28.472656 17.125 27.734375 17.765625 26.960938 C 18.652344 26.078125 20.566406 25.445312 21.765625 26.070312 Z M 21.765625 26.070312 "/>
<path style=" stroke:none;fill-rule:nonzero;fill:rgb(1.176471%,1.568627%,1.176471%);fill-opacity:1;" d="M 20.78125 24.542969 C 20.898438 24.539062 21.011719 24.535156 21.128906 24.527344 C 21.6875 24.527344 22.074219 24.546875 22.507812 24.921875 C 22.625 25.042969 22.742188 25.167969 22.851562 25.292969 C 22.945312 25.386719 23.035156 25.480469 23.128906 25.578125 C 23.285156 25.746094 23.445312 25.917969 23.605469 26.089844 C 23.804688 26.289062 23.804688 26.289062 24.027344 26.273438 C 24.277344 26.140625 24.4375 25.976562 24.632812 25.769531 C 24.785156 25.609375 24.941406 25.449219 25.097656 25.292969 C 25.175781 25.203125 25.175781 25.203125 25.253906 25.113281 C 25.644531 24.710938 25.925781 24.5625 26.488281 24.527344 C 26.714844 24.527344 26.941406 24.535156 27.167969 24.542969 C 27.34375 24.546875 27.34375 24.546875 27.523438 24.550781 C 28.910156 24.597656 30.089844 24.941406 31.128906 25.902344 C 32.03125 26.871094 32.425781 28.046875 32.441406 29.351562 C 32.441406 29.476562 32.445312 29.601562 32.445312 29.734375 C 32.445312 29.867188 32.449219 30.003906 32.449219 30.140625 C 32.449219 30.207031 32.449219 30.277344 32.449219 30.347656 C 32.453125 30.710938 32.453125 31.078125 32.457031 31.441406 C 32.457031 31.742188 32.460938 32.042969 32.464844 32.34375 C 32.46875 32.707031 32.472656 33.070312 32.472656 33.433594 C 32.472656 33.574219 32.472656 33.710938 32.476562 33.847656 C 32.480469 34.042969 32.480469 34.234375 32.480469 34.429688 C 32.480469 34.539062 32.480469 34.648438 32.480469 34.761719 C 32.402344 35.160156 32.246094 35.292969 31.933594 35.546875 C 31.625 35.609375 31.625 35.609375 31.273438 35.609375 C 31.175781 35.609375 31.175781 35.609375 31.074219 35.609375 C 30.859375 35.613281 30.640625 35.609375 30.421875 35.609375 C 30.265625 35.609375 30.109375 35.609375 29.953125 35.609375 C 29.53125 35.613281 29.105469 35.609375 28.683594 35.609375 C 28.238281 35.609375 27.796875 35.609375 27.351562 35.609375 C 26.605469 35.609375 25.863281 35.609375 25.117188 35.605469 C 24.257812 35.601562 23.394531 35.601562 22.535156 35.605469 C 21.703125 35.605469 20.875 35.605469 20.046875 35.601562 C 19.695312 35.601562 19.34375 35.601562 18.988281 35.601562 C 18.574219 35.605469 18.160156 35.601562 17.746094 35.601562 C 17.59375 35.597656 17.441406 35.597656 17.289062 35.601562 C 17.078125 35.601562 16.871094 35.597656 16.664062 35.597656 C 16.546875 35.597656 16.429688 35.597656 16.3125 35.597656 C 15.953125 35.535156 15.839844 35.441406 15.625 35.15625 C 15.574219 34.851562 15.574219 34.851562 15.574219 34.484375 C 15.570312 34.417969 15.570312 34.351562 15.570312 34.28125 C 15.566406 34.0625 15.570312 33.839844 15.570312 33.621094 C 15.570312 33.46875 15.570312 33.3125 15.566406 33.160156 C 15.566406 32.835938 15.566406 32.511719 15.570312 32.1875 C 15.570312 31.773438 15.566406 31.363281 15.566406 30.953125 C 15.5625 30.632812 15.5625 30.3125 15.5625 29.992188 C 15.5625 29.84375 15.5625 29.691406 15.5625 29.539062 C 15.550781 28.066406 15.945312 27.03125 16.917969 25.921875 C 18.125 24.851562 19.199219 24.578125 20.78125 24.542969 Z M 17.671875 27.085938 C 17.011719 27.984375 16.964844 28.710938 16.972656 29.800781 C 16.972656 29.921875 16.972656 30.046875 16.972656 30.171875 C 16.976562 30.496094 16.976562 30.820312 16.980469 31.144531 C 16.980469 31.472656 16.980469 31.804688 16.984375 32.136719 C 16.984375 32.785156 16.988281 33.433594 16.992188 34.082031 C 17.765625 34.082031 18.539062 34.082031 19.335938 34.082031 C 19.339844 33.785156 19.34375 33.484375 19.347656 33.175781 C 19.351562 32.886719 19.355469 32.597656 19.363281 32.308594 C 19.363281 32.109375 19.367188 31.90625 19.371094 31.707031 C 19.371094 31.417969 19.378906 31.128906 19.382812 30.839844 C 19.382812 30.703125 19.382812 30.703125 19.386719 30.566406 C 19.398438 29.949219 19.398438 29.949219 19.566406 29.628906 C 19.726562 29.492188 19.726562 29.492188 20.019531 29.457031 C 20.3125 29.492188 20.3125 29.492188 20.605469 29.6875 C 20.644531 29.882812 20.644531 29.882812 20.648438 30.121094 C 20.648438 30.214844 20.652344 30.304688 20.652344 30.398438 C 20.652344 30.496094 20.65625 30.589844 20.65625 30.6875 C 20.65625 30.777344 20.660156 30.867188 20.660156 30.957031 C 20.667969 31.285156 20.667969 31.617188 20.671875 31.945312 C 20.6875 33.050781 20.6875 33.050781 20.703125 34.179688 C 22.863281 34.179688 25.023438 34.179688 27.246094 34.179688 C 27.265625 32.746094 27.265625 32.746094 27.285156 31.3125 C 27.289062 31.132812 27.289062 30.953125 27.292969 30.773438 C 27.292969 30.636719 27.292969 30.636719 27.296875 30.492188 C 27.296875 30.402344 27.300781 30.3125 27.300781 30.222656 C 27.300781 30.144531 27.304688 30.066406 27.304688 29.988281 C 27.355469 29.734375 27.429688 29.644531 27.636719 29.492188 C 28.140625 29.429688 28.140625 29.429688 28.386719 29.613281 C 28.550781 29.832031 28.554688 29.953125 28.558594 30.222656 C 28.558594 30.308594 28.5625 30.398438 28.5625 30.488281 C 28.5625 30.582031 28.566406 30.675781 28.566406 30.773438 C 28.566406 30.871094 28.570312 30.96875 28.570312 31.070312 C 28.578125 31.378906 28.578125 31.691406 28.582031 32 C 28.585938 32.210938 28.589844 32.421875 28.59375 32.632812 C 28.601562 33.148438 28.605469 33.664062 28.613281 34.179688 C 29.417969 34.179688 30.226562 34.179688 31.054688 34.179688 C 31.0625 33.457031 31.070312 32.738281 31.074219 32.015625 C 31.078125 31.679688 31.078125 31.34375 31.085938 31.007812 C 31.089844 30.621094 31.089844 30.238281 31.09375 29.851562 C 31.09375 29.730469 31.097656 29.613281 31.097656 29.488281 C 31.097656 28.351562 30.804688 27.59375 30.015625 26.769531 C 29.703125 26.488281 29.398438 26.3125 29.003906 26.171875 C 28.917969 26.140625 28.835938 26.105469 28.746094 26.074219 C 27.980469 25.847656 27.140625 25.726562 26.367188 25.976562 C 25.699219 26.417969 25.179688 27.035156 24.671875 27.652344 C 24.453125 27.898438 24.339844 27.925781 24.011719 27.984375 C 23.519531 27.914062 23.375 27.722656 23.050781 27.367188 C 22.804688 27.097656 22.539062 26.867188 22.261719 26.632812 C 22.070312 26.464844 22.070312 26.464844 21.863281 26.203125 C 21.460938 25.878906 21.132812 25.910156 20.628906 25.929688 C 20.503906 25.925781 20.503906 25.925781 20.375 25.925781 C 19.335938 25.941406 18.363281 26.285156 17.671875 27.085938 Z M 17.671875 27.085938 "/>
<path style=" stroke:none;fill-rule:nonzero;fill:rgb(1.176471%,1.176471%,0.784314%);fill-opacity:1;" d="M 26.269531 14.941406 C 27.375 15.644531 28.101562 16.628906 28.515625 17.871094 C 28.664062 19.464844 28.453125 20.742188 27.453125 22.035156 C 27.15625 22.367188 26.847656 22.621094 26.464844 22.851562 C 26.40625 22.886719 26.34375 22.925781 26.285156 22.964844 C 25.261719 23.527344 23.992188 23.730469 22.851562 23.46875 C 21.476562 23.003906 20.476562 22.199219 19.824219 20.898438 C 19.292969 19.597656 19.277344 18.296875 19.824219 16.992188 C 20.347656 15.917969 21.242188 15.082031 22.363281 14.648438 C 22.445312 14.613281 22.53125 14.578125 22.617188 14.542969 C 23.800781 14.21875 25.203125 14.335938 26.269531 14.941406 Z M 26.269531 14.941406 "/>
<path style=" stroke:none;fill-rule:nonzero;fill:rgb(1.176471%,1.176471%,0.784314%);fill-opacity:1;" d="M 36.753906 14.085938 C 37.628906 14.753906 38.175781 15.546875 38.476562 16.601562 C 38.597656 17.910156 38.402344 19.023438 37.59375 20.09375 C 36.902344 20.882812 35.976562 21.453125 34.917969 21.523438 C 34.15625 21.550781 33.402344 21.546875 32.714844 21.191406 C 32.632812 21.152344 32.554688 21.109375 32.46875 21.070312 C 31.449219 20.507812 30.910156 19.71875 30.46875 18.652344 C 30.382812 18.324219 30.382812 18.324219 30.371094 17.96875 C 30.359375 17.816406 30.359375 17.816406 30.351562 17.664062 C 30.296875 16.484375 30.648438 15.523438 31.445312 14.648438 C 32.871094 13.167969 35.046875 12.957031 36.753906 14.085938 Z M 36.753906 14.085938 "/>
<path style=" stroke:none;fill-rule:nonzero;fill:rgb(1.568627%,1.568627%,1.176471%);fill-opacity:1;" d="M 16.015625 14.160156 C 16.859375 14.765625 17.445312 15.746094 17.640625 16.757812 C 17.808594 17.894531 17.542969 18.992188 16.855469 19.921875 C 16.804688 19.988281 16.753906 20.050781 16.699219 20.117188 C 16.648438 20.179688 16.601562 20.238281 16.550781 20.300781 C 16.027344 20.886719 15.148438 21.433594 14.355469 21.5 C 12.871094 21.542969 11.878906 21.441406 10.742188 20.410156 C 10.011719 19.707031 9.566406 18.808594 9.535156 17.796875 C 9.519531 16.460938 9.75 15.554688 10.703125 14.570312 C 11.304688 14.019531 11.910156 13.683594 12.695312 13.476562 C 12.757812 13.457031 12.820312 13.441406 12.886719 13.421875 C 14.027344 13.175781 15.042969 13.601562 16.015625 14.160156 Z M 16.015625 14.160156 "/>
<path style=" stroke:none;fill-rule:nonzero;fill:rgb(2.352941%,2.352941%,1.176471%);fill-opacity:1;" d="M 31.480469 22.40625 C 31.597656 22.402344 31.714844 22.394531 31.835938 22.390625 C 32.414062 22.382812 32.8125 22.390625 33.261719 22.78125 C 33.375 22.898438 33.488281 23.019531 33.59375 23.144531 C 33.699219 23.253906 33.699219 23.253906 33.804688 23.363281 C 33.910156 23.480469 34.015625 23.597656 34.117188 23.710938 C 34.269531 23.851562 34.269531 23.851562 34.464844 23.804688 C 34.804688 23.679688 35.023438 23.402344 35.265625 23.144531 C 35.914062 22.46875 35.914062 22.46875 36.277344 22.445312 C 36.605469 22.441406 36.933594 22.4375 37.261719 22.4375 C 37.375 22.433594 37.488281 22.433594 37.605469 22.429688 C 38.78125 22.425781 39.761719 22.730469 40.648438 23.539062 C 41.679688 24.636719 41.925781 25.792969 41.921875 27.257812 C 41.921875 27.378906 41.921875 27.5 41.921875 27.625 C 41.921875 27.945312 41.921875 28.265625 41.917969 28.585938 C 41.917969 28.785156 41.917969 28.980469 41.921875 29.179688 C 41.921875 29.558594 41.921875 29.9375 41.921875 30.316406 C 41.921875 30.433594 41.921875 30.550781 41.921875 30.671875 C 41.921875 30.832031 41.921875 30.832031 41.917969 31 C 41.917969 31.097656 41.917969 31.191406 41.917969 31.289062 C 41.894531 31.554688 41.847656 31.710938 41.699219 31.933594 C 41.339844 32.171875 41.070312 32.160156 40.65625 32.160156 C 40.539062 32.160156 40.539062 32.160156 40.421875 32.160156 C 40.171875 32.164062 39.917969 32.164062 39.664062 32.164062 C 39.488281 32.167969 39.3125 32.167969 39.136719 32.167969 C 38.769531 32.167969 38.398438 32.171875 38.03125 32.171875 C 37.558594 32.171875 37.085938 32.175781 36.613281 32.179688 C 36.253906 32.183594 35.890625 32.183594 35.527344 32.183594 C 35.351562 32.183594 35.175781 32.183594 35.003906 32.1875 C 34.761719 32.1875 34.515625 32.1875 34.273438 32.1875 C 34.203125 32.1875 34.128906 32.191406 34.054688 32.191406 C 33.675781 32.1875 33.507812 32.136719 33.203125 31.902344 C 33.007812 31.640625 33.007812 31.640625 33.007812 31.28125 C 33.105469 30.957031 33.105469 30.957031 33.398438 30.761719 C 33.6875 30.746094 33.96875 30.738281 34.261719 30.742188 C 34.34375 30.742188 34.429688 30.742188 34.515625 30.742188 C 34.785156 30.746094 35.050781 30.746094 35.320312 30.75 C 35.503906 30.75 35.683594 30.75 35.867188 30.753906 C 36.3125 30.753906 36.761719 30.757812 37.207031 30.761719 C 37.203125 30.589844 37.203125 30.589844 37.199219 30.417969 C 37.195312 29.996094 37.1875 29.578125 37.1875 29.15625 C 37.183594 28.972656 37.179688 28.792969 37.175781 28.609375 C 37.171875 28.347656 37.171875 28.085938 37.167969 27.824219 C 37.167969 27.742188 37.164062 27.660156 37.164062 27.578125 C 37.164062 27.207031 37.164062 27.015625 37.382812 26.703125 C 37.597656 26.5625 37.597656 26.5625 37.945312 26.5625 C 38.28125 26.660156 38.28125 26.660156 38.445312 26.808594 C 38.632812 27.160156 38.609375 27.496094 38.601562 27.878906 C 38.601562 27.957031 38.601562 28.039062 38.601562 28.121094 C 38.601562 28.375 38.597656 28.628906 38.59375 28.882812 C 38.589844 29.054688 38.589844 29.226562 38.589844 29.398438 C 38.585938 29.820312 38.578125 30.242188 38.574219 30.664062 C 39.1875 30.664062 39.796875 30.664062 40.429688 30.664062 C 40.421875 29.996094 40.414062 29.328125 40.402344 28.664062 C 40.402344 28.4375 40.398438 28.210938 40.394531 27.980469 C 40.390625 27.65625 40.386719 27.328125 40.382812 27 C 40.382812 26.902344 40.378906 26.800781 40.378906 26.695312 C 40.363281 25.875 40.214844 25.183594 39.628906 24.570312 C 38.875 23.902344 37.992188 23.773438 37.007812 23.824219 C 36.242188 23.929688 35.835938 24.472656 35.378906 25.042969 C 35.09375 25.386719 34.882812 25.5625 34.441406 25.652344 C 33.925781 25.558594 33.683594 25.285156 33.324219 24.921875 C 33.261719 24.859375 33.195312 24.796875 33.128906 24.730469 C 32.664062 24.277344 32.664062 24.277344 32.476562 24.054688 C 32.273438 23.882812 32.152344 23.886719 31.890625 23.886719 C 31.808594 23.886719 31.722656 23.886719 31.636719 23.886719 C 31.550781 23.886719 31.460938 23.886719 31.371094 23.890625 C 31.285156 23.886719 31.199219 23.886719 31.109375 23.886719 C 30.558594 23.886719 30.183594 23.976562 29.6875 24.21875 C 29.324219 24.269531 29.171875 24.265625 28.863281 24.066406 C 28.710938 23.828125 28.710938 23.828125 28.6875 23.492188 C 28.835938 23.070312 28.988281 22.972656 29.363281 22.757812 C 30.074219 22.4375 30.714844 22.414062 31.480469 22.40625 Z M 31.480469 22.40625 "/>
<path style=" stroke:none;fill-rule:nonzero;fill:rgb(1.176471%,1.176471%,0.784314%);fill-opacity:1;" d="M 12.285156 22.59375 C 12.757812 22.941406 13.125 23.359375 13.476562 23.828125 C 13.820312 23.675781 13.980469 23.492188 14.21875 23.199219 C 14.671875 22.679688 15.066406 22.433594 15.761719 22.367188 C 16.851562 22.328125 18.105469 22.3125 19.042969 22.949219 C 19.242188 23.171875 19.328125 23.289062 19.378906 23.582031 C 19.335938 23.828125 19.335938 23.828125 19.183594 24.054688 C 18.851562 24.28125 18.65625 24.265625 18.261719 24.21875 C 18.160156 24.171875 18.058594 24.125 17.953125 24.074219 C 17.28125 23.777344 16.4375 23.78125 15.722656 23.925781 C 15.308594 24.152344 15.042969 24.441406 14.746094 24.804688 C 14.613281 24.957031 14.480469 25.105469 14.34375 25.25 C 14.289062 25.316406 14.234375 25.378906 14.175781 25.445312 C 13.917969 25.617188 13.699219 25.664062 13.390625 25.648438 C 12.953125 25.515625 12.703125 25.097656 12.421875 24.753906 C 11.929688 24.214844 11.546875 23.828125 10.792969 23.789062 C 9.769531 23.824219 8.902344 24.039062 8.160156 24.777344 C 7.660156 25.5 7.558594 26.167969 7.558594 27.03125 C 7.554688 27.140625 7.554688 27.246094 7.554688 27.359375 C 7.546875 27.695312 7.546875 28.035156 7.542969 28.375 C 7.542969 28.605469 7.539062 28.835938 7.535156 29.070312 C 7.527344 29.632812 7.523438 30.199219 7.519531 30.761719 C 8.164062 30.761719 8.808594 30.761719 9.472656 30.761719 C 9.46875 30.492188 9.464844 30.222656 9.457031 29.941406 C 9.457031 29.679688 9.453125 29.417969 9.453125 29.15625 C 9.449219 28.972656 9.445312 28.792969 9.441406 28.609375 C 9.4375 28.347656 9.4375 28.085938 9.433594 27.824219 C 9.433594 27.742188 9.429688 27.660156 9.429688 27.578125 C 9.429688 27.207031 9.429688 27.015625 9.648438 26.703125 C 9.863281 26.5625 9.863281 26.5625 10.210938 26.570312 C 10.542969 26.660156 10.636719 26.691406 10.839844 26.953125 C 10.867188 27.246094 10.875 27.519531 10.867188 27.816406 C 10.867188 27.898438 10.867188 27.984375 10.867188 28.070312 C 10.867188 28.339844 10.863281 28.605469 10.859375 28.875 C 10.855469 29.058594 10.855469 29.238281 10.855469 29.421875 C 10.851562 29.867188 10.847656 30.316406 10.839844 30.761719 C 11.011719 30.757812 11.011719 30.757812 11.183594 30.757812 C 11.605469 30.75 12.027344 30.75 12.449219 30.746094 C 12.632812 30.746094 12.816406 30.742188 13 30.738281 C 13.261719 30.734375 13.523438 30.734375 13.785156 30.734375 C 13.910156 30.730469 13.910156 30.730469 14.035156 30.730469 C 14.605469 30.726562 14.605469 30.726562 14.816406 30.890625 C 14.941406 31.054688 14.941406 31.054688 14.992188 31.390625 C 14.941406 31.738281 14.941406 31.738281 14.742188 31.953125 C 14.382812 32.171875 14.09375 32.183594 13.6875 32.179688 C 13.574219 32.183594 13.574219 32.183594 13.460938 32.183594 C 13.210938 32.1875 12.960938 32.183594 12.714844 32.183594 C 12.539062 32.183594 12.367188 32.183594 12.195312 32.1875 C 11.832031 32.1875 11.46875 32.1875 11.105469 32.183594 C 10.640625 32.183594 10.175781 32.1875 9.710938 32.1875 C 9.355469 32.191406 8.996094 32.191406 8.636719 32.191406 C 8.464844 32.191406 8.296875 32.191406 8.125 32.191406 C 7.882812 32.195312 7.644531 32.191406 7.40625 32.191406 C 7.300781 32.191406 7.300781 32.191406 7.191406 32.195312 C 6.824219 32.1875 6.648438 32.136719 6.351562 31.917969 C 6.125 31.601562 6.089844 31.457031 6.09375 31.070312 C 6.089844 30.902344 6.089844 30.902344 6.089844 30.730469 C 6.089844 30.613281 6.09375 30.492188 6.09375 30.367188 C 6.09375 30.242188 6.09375 30.117188 6.09375 29.988281 C 6.09375 29.722656 6.097656 29.460938 6.097656 29.195312 C 6.101562 28.859375 6.105469 28.523438 6.101562 28.1875 C 6.101562 27.863281 6.105469 27.539062 6.105469 27.21875 C 6.105469 27.097656 6.105469 26.980469 6.105469 26.855469 C 6.125 25.539062 6.488281 24.488281 7.386719 23.511719 C 8.523438 22.425781 10.832031 21.875 12.285156 22.59375 Z M 12.285156 22.59375 "/>
<path style=" stroke:none;fill-rule:nonzero;fill:rgb(38.823529%,81.176471%,92.54902%);fill-opacity:1;" d="M 41.40625 4.394531 C 42.117188 4.394531 42.824219 4.394531 43.554688 4.394531 C 43.558594 4.835938 43.558594 4.835938 43.566406 5.285156 C 43.570312 5.570312 43.574219 5.851562 43.582031 6.136719 C 43.582031 6.332031 43.585938 6.53125 43.589844 6.730469 C 43.589844 7.011719 43.597656 7.296875 43.601562 7.578125 C 43.601562 7.667969 43.605469 7.757812 43.605469 7.847656 C 43.605469 7.929688 43.609375 8.011719 43.609375 8.097656 C 43.609375 8.167969 43.613281 8.242188 43.613281 8.316406 C 43.640625 8.535156 43.640625 8.535156 43.945312 8.691406 C 44.132812 8.722656 44.132812 8.722656 44.335938 8.722656 C 44.453125 8.726562 44.453125 8.726562 44.574219 8.726562 C 44.65625 8.730469 44.742188 8.730469 44.828125 8.730469 C 44.957031 8.734375 44.957031 8.734375 45.089844 8.738281 C 45.367188 8.742188 45.640625 8.746094 45.917969 8.753906 C 46.105469 8.757812 46.289062 8.761719 46.476562 8.765625 C 46.933594 8.773438 47.394531 8.78125 47.851562 8.789062 C 47.851562 9.464844 47.851562 10.140625 47.851562 10.839844 C 47.574219 10.84375 47.292969 10.847656 47.007812 10.855469 C 46.738281 10.859375 46.46875 10.863281 46.199219 10.871094 C 46.011719 10.875 45.824219 10.878906 45.636719 10.882812 C 45.367188 10.886719 45.097656 10.890625 44.828125 10.898438 C 44.746094 10.898438 44.660156 10.898438 44.574219 10.902344 C 44.496094 10.902344 44.417969 10.90625 44.335938 10.90625 C 44.269531 10.90625 44.199219 10.910156 44.128906 10.910156 C 43.914062 10.929688 43.914062 10.929688 43.652344 11.132812 C 43.605469 11.316406 43.605469 11.316406 43.609375 11.53125 C 43.609375 11.613281 43.605469 11.695312 43.605469 11.78125 C 43.605469 11.867188 43.601562 11.957031 43.601562 12.050781 C 43.601562 12.183594 43.601562 12.183594 43.597656 12.324219 C 43.589844 12.613281 43.589844 12.90625 43.585938 13.195312 C 43.582031 13.390625 43.578125 13.589844 43.574219 13.785156 C 43.566406 14.269531 43.5625 14.75 43.554688 15.234375 C 42.84375 15.234375 42.136719 15.234375 41.40625 15.234375 C 41.402344 14.949219 41.402344 14.664062 41.398438 14.367188 C 41.394531 14.09375 41.390625 13.816406 41.386719 13.539062 C 41.382812 13.347656 41.382812 13.15625 41.378906 12.964844 C 41.378906 12.6875 41.375 12.410156 41.367188 12.136719 C 41.367188 12.050781 41.367188 11.960938 41.367188 11.875 C 41.363281 11.421875 41.363281 11.421875 41.164062 11.03125 C 40.792969 10.890625 40.441406 10.890625 40.046875 10.886719 C 39.960938 10.886719 39.878906 10.882812 39.792969 10.882812 C 39.523438 10.875 39.257812 10.875 38.988281 10.871094 C 38.808594 10.867188 38.625 10.863281 38.445312 10.859375 C 38 10.851562 37.554688 10.847656 37.109375 10.839844 C 37.109375 10.164062 37.109375 9.484375 37.109375 8.789062 C 37.386719 8.785156 37.667969 8.78125 37.953125 8.777344 C 38.222656 8.773438 38.492188 8.769531 38.761719 8.761719 C 38.949219 8.761719 39.136719 8.757812 39.324219 8.753906 C 39.59375 8.753906 39.863281 8.746094 40.132812 8.742188 C 40.214844 8.742188 40.300781 8.738281 40.386719 8.738281 C 40.503906 8.738281 40.503906 8.738281 40.625 8.734375 C 40.726562 8.730469 40.726562 8.730469 40.832031 8.730469 C 41.074219 8.679688 41.160156 8.597656 41.308594 8.398438 C 41.355469 8.207031 41.355469 8.207031 41.351562 7.996094 C 41.351562 7.917969 41.355469 7.835938 41.355469 7.753906 C 41.355469 7.667969 41.359375 7.582031 41.359375 7.492188 C 41.359375 7.40625 41.363281 7.316406 41.363281 7.226562 C 41.371094 6.941406 41.371094 6.660156 41.375 6.378906 C 41.378906 6.1875 41.382812 5.996094 41.386719 5.804688 C 41.394531 5.332031 41.398438 4.863281 41.40625 4.394531 Z M 41.40625 4.394531 "/>
<path style=" stroke:none;fill-rule:nonzero;fill:rgb(92.941176%,77.254902%,63.529412%);fill-opacity:1;" d="M 25.683594 16.210938 C 26.441406 16.753906 26.933594 17.347656 27.148438 18.261719 C 27.238281 19.207031 27.21875 20 26.660156 20.800781 C 26.601562 20.894531 26.601562 20.894531 26.539062 20.992188 C 26.078125 21.617188 25.328125 21.929688 24.609375 22.167969 C 23.648438 22.25 22.886719 22.164062 22.101562 21.582031 C 21.589844 21.152344 21.21875 20.746094 20.996094 20.117188 C 20.960938 20.023438 20.929688 19.933594 20.894531 19.835938 C 20.628906 18.953125 20.761719 18.167969 21.1875 17.367188 C 21.472656 16.871094 21.789062 16.519531 22.265625 16.210938 C 22.359375 16.148438 22.359375 16.148438 22.457031 16.082031 C 23.394531 15.566406 24.785156 15.660156 25.683594 16.210938 Z M 25.683594 16.210938 "/>
<path style=" stroke:none;fill-rule:nonzero;fill:rgb(92.54902%,76.862745%,63.529412%);fill-opacity:1;" d="M 35.839844 15.136719 C 36.472656 15.539062 36.890625 16.078125 37.109375 16.796875 C 37.234375 17.691406 37.097656 18.394531 36.585938 19.136719 C 36.1875 19.644531 35.703125 19.996094 35.058594 20.117188 C 34.140625 20.179688 33.40625 20.140625 32.652344 19.585938 C 32.039062 19.011719 31.707031 18.253906 31.671875 17.417969 C 31.714844 16.605469 32 16 32.59375 15.441406 C 33.644531 14.609375 34.644531 14.539062 35.839844 15.136719 Z M 35.839844 15.136719 "/>
<path style=" stroke:none;fill-rule:nonzero;fill:rgb(92.54902%,77.254902%,63.529412%);fill-opacity:1;" d="M 15.039062 15.136719 C 15.570312 15.464844 15.972656 15.992188 16.171875 16.585938 C 16.324219 17.433594 16.3125 18.3125 15.820312 19.042969 C 15.433594 19.535156 14.96875 19.960938 14.355469 20.117188 C 13.398438 20.214844 12.597656 20.203125 11.828125 19.574219 C 11.222656 19.019531 10.929688 18.523438 10.890625 17.6875 C 10.878906 16.84375 11 16.285156 11.566406 15.648438 C 11.691406 15.539062 11.691406 15.539062 11.816406 15.429688 C 11.890625 15.359375 11.964844 15.292969 12.042969 15.222656 C 13.003906 14.550781 14.023438 14.601562 15.039062 15.136719 Z M 15.039062 15.136719 "/>
</g>
</svg>
