<?xml version="1.0" encoding="UTF-8"?>
<svg xmlns="http://www.w3.org/2000/svg" xmlns:xlink="http://www.w3.org/1999/xlink" width="50px" height="px" viewBox="0 0 50 50" version="1.1">
<g id="surface1">
<path style=" stroke:none;fill-rule:nonzero;fill:rgb(0%,0%,0%);fill-opacity:1;" d="M 22.234375 2.078125 C 23.640625 3.222656 24.777344 4.800781 25 6.640625 C 25.03125 7.292969 25.015625 7.941406 25 8.59375 C 25.058594 8.605469 25.113281 8.617188 25.175781 8.628906 C 25.609375 8.71875 26 8.816406 26.398438 9.027344 C 26.476562 9.066406 26.554688 9.105469 26.632812 9.148438 C 26.851562 9.277344 27.046875 9.417969 27.246094 9.570312 C 27.246094 9.464844 27.246094 9.464844 27.25 9.359375 C 27.253906 9.039062 27.261719 8.71875 27.269531 8.398438 C 27.273438 8.289062 27.273438 8.179688 27.273438 8.066406 C 27.296875 7.28125 27.402344 6.726562 27.925781 6.128906 C 27.988281 6.074219 28.054688 6.023438 28.117188 5.96875 C 28.183594 5.914062 28.246094 5.859375 28.3125 5.804688 C 28.769531 5.488281 29.160156 5.445312 29.714844 5.449219 C 29.78125 5.449219 29.847656 5.449219 29.914062 5.449219 C 30.125 5.453125 30.335938 5.453125 30.546875 5.457031 C 30.691406 5.457031 30.835938 5.457031 30.980469 5.460938 C 31.328125 5.460938 31.679688 5.464844 32.03125 5.46875 C 32.027344 5.382812 32.027344 5.292969 32.023438 5.203125 C 32.019531 4.875 32.011719 4.546875 32.011719 4.21875 C 32.007812 4.078125 32.003906 3.933594 32 3.792969 C 31.980469 2.875 31.976562 2.171875 32.613281 1.441406 C 32.675781 1.386719 32.742188 1.335938 32.804688 1.28125 C 32.871094 1.226562 32.933594 1.171875 33 1.117188 C 33.414062 0.832031 33.773438 0.757812 34.269531 0.753906 C 34.386719 0.753906 34.503906 0.753906 34.625 0.753906 C 34.8125 0.753906 34.8125 0.753906 35.007812 0.753906 C 35.144531 0.753906 35.277344 0.75 35.414062 0.75 C 35.78125 0.75 36.148438 0.75 36.515625 0.75 C 36.746094 0.75 36.976562 0.746094 37.203125 0.746094 C 38.007812 0.746094 38.808594 0.746094 39.609375 0.746094 C 40.355469 0.746094 41.101562 0.742188 41.847656 0.738281 C 42.492188 0.738281 43.132812 0.738281 43.773438 0.738281 C 44.15625 0.738281 44.539062 0.734375 44.921875 0.734375 C 45.28125 0.730469 45.644531 0.730469 46.003906 0.734375 C 46.199219 0.734375 46.390625 0.730469 46.585938 0.730469 C 47.390625 0.734375 47.9375 0.820312 48.558594 1.363281 C 48.613281 1.425781 48.664062 1.492188 48.71875 1.554688 C 48.773438 1.621094 48.828125 1.683594 48.882812 1.75 C 49.199219 2.210938 49.246094 2.632812 49.246094 3.183594 C 49.246094 3.257812 49.25 3.328125 49.25 3.40625 C 49.25 3.644531 49.25 3.886719 49.25 4.128906 C 49.253906 4.296875 49.253906 4.464844 49.253906 4.632812 C 49.253906 4.984375 49.253906 5.335938 49.253906 5.691406 C 49.253906 6.140625 49.257812 6.589844 49.261719 7.039062 C 49.261719 7.386719 49.261719 7.734375 49.261719 8.082031 C 49.261719 8.25 49.265625 8.414062 49.265625 8.582031 C 49.28125 10.324219 49.28125 10.324219 48.636719 11.058594 C 48.574219 11.113281 48.507812 11.164062 48.445312 11.21875 C 48.378906 11.273438 48.316406 11.328125 48.25 11.382812 C 47.792969 11.699219 47.402344 11.742188 46.847656 11.738281 C 46.78125 11.738281 46.714844 11.738281 46.648438 11.738281 C 46.4375 11.734375 46.226562 11.734375 46.015625 11.730469 C 45.871094 11.730469 45.726562 11.730469 45.582031 11.726562 C 45.234375 11.726562 44.882812 11.722656 44.53125 11.71875 C 44.53125 12.234375 44.53125 12.75 44.53125 13.28125 C 45.046875 13.28125 45.5625 13.28125 46.09375 13.28125 C 46.09375 13.796875 46.09375 14.3125 46.09375 14.84375 C 42.484375 14.84375 38.875 14.84375 35.15625 14.84375 C 35.15625 14.328125 35.15625 13.8125 35.15625 13.28125 C 35.671875 13.28125 36.1875 13.28125 36.71875 13.28125 C 36.71875 12.765625 36.71875 12.25 36.71875 11.71875 C 36.507812 11.722656 36.300781 11.726562 36.082031 11.734375 C 35.878906 11.734375 35.671875 11.738281 35.46875 11.738281 C 35.328125 11.742188 35.183594 11.746094 35.042969 11.75 C 34.125 11.769531 33.421875 11.773438 32.691406 11.136719 C 32.613281 11.039062 32.613281 11.039062 32.53125 10.945312 C 32.476562 10.878906 32.421875 10.816406 32.367188 10.75 C 32.050781 10.292969 32.007812 9.902344 32.011719 9.347656 C 32.011719 9.25 32.011719 9.25 32.011719 9.148438 C 32.015625 8.9375 32.015625 8.726562 32.019531 8.515625 C 32.019531 8.371094 32.019531 8.226562 32.023438 8.082031 C 32.023438 7.734375 32.027344 7.382812 32.03125 7.03125 C 31.652344 7.042969 31.269531 7.054688 30.890625 7.066406 C 30.78125 7.070312 30.675781 7.074219 30.5625 7.078125 C 30.460938 7.082031 30.355469 7.085938 30.246094 7.089844 C 30.152344 7.089844 30.054688 7.09375 29.957031 7.097656 C 29.664062 7.132812 29.457031 7.175781 29.199219 7.324219 C 29.007812 7.699219 28.980469 8.015625 28.976562 8.433594 C 28.976562 8.558594 28.972656 8.6875 28.972656 8.816406 C 28.972656 8.953125 28.972656 9.09375 28.972656 9.230469 C 28.972656 9.375 28.972656 9.523438 28.96875 9.667969 C 28.96875 10.066406 28.964844 10.460938 28.964844 10.859375 C 28.960938 11.273438 28.960938 11.6875 28.957031 12.105469 C 28.953125 12.886719 28.949219 13.671875 28.945312 14.457031 C 28.941406 15.351562 28.9375 16.246094 28.933594 17.140625 C 28.921875 18.980469 28.914062 20.816406 28.90625 22.65625 C 29.9375 22.65625 30.96875 22.65625 32.03125 22.65625 C 32.015625 21.695312 32.015625 21.695312 31.996094 20.734375 C 31.988281 19.882812 32.03125 19.296875 32.613281 18.628906 C 32.675781 18.574219 32.742188 18.523438 32.804688 18.46875 C 32.871094 18.414062 32.933594 18.359375 33 18.304688 C 33.414062 18.019531 33.773438 17.945312 34.269531 17.941406 C 34.386719 17.941406 34.503906 17.941406 34.625 17.941406 C 34.8125 17.941406 34.8125 17.941406 35.007812 17.941406 C 35.144531 17.941406 35.277344 17.9375 35.414062 17.9375 C 35.78125 17.9375 36.148438 17.9375 36.515625 17.9375 C 36.746094 17.9375 36.976562 17.933594 37.203125 17.933594 C 38.007812 17.933594 38.808594 17.933594 39.609375 17.933594 C 40.355469 17.933594 41.101562 17.929688 41.847656 17.925781 C 42.492188 17.925781 43.132812 17.925781 43.773438 17.925781 C 44.15625 17.925781 44.539062 17.921875 44.921875 17.921875 C 45.28125 17.917969 45.644531 17.917969 46.003906 17.921875 C 46.199219 17.921875 46.390625 17.917969 46.585938 17.917969 C 47.390625 17.921875 47.9375 18.007812 48.558594 18.550781 C 48.613281 18.613281 48.664062 18.679688 48.71875 18.742188 C 48.773438 18.808594 48.828125 18.871094 48.882812 18.9375 C 49.199219 19.398438 49.246094 19.820312 49.246094 20.371094 C 49.246094 20.445312 49.25 20.515625 49.25 20.59375 C 49.25 20.832031 49.25 21.074219 49.25 21.316406 C 49.253906 21.484375 49.253906 21.652344 49.253906 21.820312 C 49.253906 22.171875 49.253906 22.523438 49.253906 22.878906 C 49.253906 23.328125 49.257812 23.777344 49.261719 24.226562 C 49.261719 24.574219 49.261719 24.921875 49.261719 25.269531 C 49.261719 25.4375 49.265625 25.601562 49.265625 25.769531 C 49.28125 27.511719 49.28125 27.511719 48.636719 28.246094 C 48.574219 28.300781 48.507812 28.351562 48.445312 28.40625 C 48.378906 28.460938 48.316406 28.515625 48.25 28.570312 C 47.792969 28.886719 47.402344 28.929688 46.847656 28.925781 C 46.75 28.925781 46.75 28.925781 46.648438 28.925781 C 46.4375 28.921875 46.226562 28.921875 46.015625 28.917969 C 45.871094 28.917969 45.726562 28.917969 45.582031 28.914062 C 45.234375 28.914062 44.882812 28.910156 44.53125 28.90625 C 44.53125 29.421875 44.53125 29.9375 44.53125 30.46875 C 45.046875 30.46875 45.5625 30.46875 46.09375 30.46875 C 46.09375 30.984375 46.09375 31.5 46.09375 32.03125 C 42.484375 32.03125 38.875 32.03125 35.15625 32.03125 C 35.15625 31.515625 35.15625 31 35.15625 30.46875 C 35.671875 30.46875 36.1875 30.46875 36.71875 30.46875 C 36.71875 29.953125 36.71875 29.4375 36.71875 28.90625 C 36.507812 28.910156 36.300781 28.914062 36.082031 28.921875 C 35.878906 28.921875 35.671875 28.925781 35.46875 28.925781 C 35.328125 28.929688 35.183594 28.933594 35.042969 28.9375 C 34.125 28.957031 33.421875 28.960938 32.691406 28.324219 C 32.636719 28.261719 32.585938 28.195312 32.53125 28.132812 C 32.476562 28.066406 32.421875 28.003906 32.367188 27.9375 C 32.050781 27.480469 32.007812 27.089844 32.011719 26.535156 C 32.011719 26.414062 32.011719 26.292969 32.011719 26.167969 C 32.015625 26.015625 32.015625 25.859375 32.019531 25.703125 C 32.023438 25.210938 32.027344 24.722656 32.03125 24.21875 C 31 24.21875 29.96875 24.21875 28.90625 24.21875 C 28.914062 26.144531 28.921875 28.074219 28.933594 30 C 28.9375 30.894531 28.945312 31.789062 28.949219 32.683594 C 28.949219 33.464844 28.953125 34.242188 28.960938 35.023438 C 28.960938 35.4375 28.964844 35.847656 28.964844 36.261719 C 28.964844 36.652344 28.96875 37.039062 28.972656 37.429688 C 28.972656 37.570312 28.972656 37.714844 28.972656 37.855469 C 28.972656 38.050781 28.976562 38.246094 28.976562 38.441406 C 28.976562 38.550781 28.976562 38.660156 28.976562 38.769531 C 29.003906 39.070312 29.0625 39.285156 29.199219 39.550781 C 29.542969 39.746094 29.859375 39.773438 30.246094 39.785156 C 30.351562 39.789062 30.457031 39.792969 30.5625 39.796875 C 30.671875 39.800781 30.777344 39.804688 30.890625 39.808594 C 31 39.8125 31.109375 39.816406 31.222656 39.820312 C 31.492188 39.828125 31.761719 39.835938 32.03125 39.84375 C 32.027344 39.757812 32.027344 39.667969 32.023438 39.578125 C 32.019531 39.25 32.011719 38.921875 32.011719 38.59375 C 32.007812 38.453125 32.003906 38.308594 32 38.167969 C 31.980469 37.25 31.976562 36.546875 32.613281 35.816406 C 32.675781 35.761719 32.742188 35.710938 32.804688 35.65625 C 32.871094 35.601562 32.933594 35.546875 33 35.492188 C 33.414062 35.207031 33.773438 35.132812 34.269531 35.128906 C 34.386719 35.128906 34.503906 35.128906 34.625 35.128906 C 34.8125 35.128906 34.8125 35.128906 35.007812 35.128906 C 35.144531 35.128906 35.277344 35.125 35.414062 35.125 C 35.78125 35.125 36.148438 35.125 36.515625 35.125 C 36.746094 35.125 36.976562 35.121094 37.203125 35.121094 C 38.007812 35.121094 38.808594 35.121094 39.609375 35.121094 C 40.355469 35.121094 41.101562 35.117188 41.847656 35.113281 C 42.492188 35.113281 43.132812 35.113281 43.773438 35.113281 C 44.15625 35.113281 44.539062 35.109375 44.921875 35.109375 C 45.28125 35.105469 45.644531 35.105469 46.003906 35.109375 C 46.199219 35.109375 46.390625 35.105469 46.585938 35.105469 C 47.390625 35.109375 47.9375 35.195312 48.558594 35.738281 C 48.613281 35.800781 48.664062 35.867188 48.71875 35.929688 C 48.773438 35.996094 48.828125 36.058594 48.882812 36.125 C 49.199219 36.585938 49.246094 37.007812 49.246094 37.558594 C 49.246094 37.632812 49.25 37.703125 49.25 37.78125 C 49.25 38.019531 49.25 38.261719 49.25 38.503906 C 49.253906 38.671875 49.253906 38.839844 49.253906 39.007812 C 49.253906 39.359375 49.253906 39.710938 49.253906 40.066406 C 49.253906 40.515625 49.257812 40.964844 49.261719 41.414062 C 49.261719 41.761719 49.261719 42.109375 49.261719 42.457031 C 49.261719 42.625 49.265625 42.789062 49.265625 42.957031 C 49.28125 44.699219 49.28125 44.699219 48.636719 45.433594 C 48.574219 45.488281 48.507812 45.539062 48.445312 45.59375 C 48.378906 45.648438 48.316406 45.703125 48.25 45.757812 C 47.792969 46.074219 47.402344 46.117188 46.847656 46.113281 C 46.75 46.113281 46.75 46.113281 46.648438 46.113281 C 46.4375 46.109375 46.226562 46.109375 46.015625 46.105469 C 45.871094 46.105469 45.726562 46.105469 45.582031 46.101562 C 45.234375 46.101562 44.882812 46.097656 44.53125 46.09375 C 44.53125 46.609375 44.53125 47.125 44.53125 47.65625 C 45.046875 47.65625 45.5625 47.65625 46.09375 47.65625 C 46.09375 48.171875 46.09375 48.6875 46.09375 49.21875 C 42.484375 49.21875 38.875 49.21875 35.15625 49.21875 C 35.15625 48.703125 35.15625 48.1875 35.15625 47.65625 C 35.671875 47.65625 36.1875 47.65625 36.71875 47.65625 C 36.71875 47.140625 36.71875 46.625 36.71875 46.09375 C 36.507812 46.097656 36.300781 46.101562 36.082031 46.109375 C 35.878906 46.109375 35.671875 46.113281 35.46875 46.113281 C 35.328125 46.117188 35.183594 46.121094 35.042969 46.125 C 34.125 46.144531 33.421875 46.148438 32.691406 45.511719 C 32.636719 45.449219 32.585938 45.382812 32.53125 45.320312 C 32.476562 45.253906 32.421875 45.191406 32.367188 45.125 C 32.050781 44.667969 32.007812 44.277344 32.011719 43.722656 C 32.011719 43.625 32.011719 43.625 32.011719 43.523438 C 32.015625 43.3125 32.015625 43.101562 32.019531 42.890625 C 32.019531 42.746094 32.019531 42.601562 32.023438 42.457031 C 32.023438 42.109375 32.027344 41.757812 32.03125 41.40625 C 31.945312 41.410156 31.855469 41.410156 31.765625 41.414062 C 31.4375 41.417969 31.109375 41.425781 30.78125 41.425781 C 30.640625 41.429688 30.496094 41.433594 30.355469 41.4375 C 29.4375 41.457031 28.734375 41.460938 28.003906 40.824219 C 27.949219 40.761719 27.898438 40.695312 27.84375 40.632812 C 27.789062 40.566406 27.734375 40.503906 27.679688 40.4375 C 27.378906 40 27.320312 39.625 27.320312 39.097656 C 27.320312 39.003906 27.320312 39.003906 27.320312 38.90625 C 27.320312 38.691406 27.320312 38.476562 27.320312 38.265625 C 27.320312 38.113281 27.320312 37.960938 27.320312 37.804688 C 27.320312 37.390625 27.324219 36.976562 27.324219 36.5625 C 27.324219 36.128906 27.324219 35.695312 27.324219 35.257812 C 27.324219 34.4375 27.328125 33.617188 27.328125 32.796875 C 27.332031 31.859375 27.332031 30.925781 27.332031 29.988281 C 27.335938 28.066406 27.339844 26.140625 27.34375 24.21875 C 27.257812 24.222656 27.167969 24.222656 27.078125 24.226562 C 26.75 24.230469 26.421875 24.238281 26.09375 24.238281 C 25.953125 24.242188 25.808594 24.246094 25.667969 24.25 C 24.753906 24.269531 24.042969 24.273438 23.316406 23.636719 C 23.261719 23.574219 23.210938 23.507812 23.15625 23.445312 C 23.101562 23.378906 23.046875 23.316406 22.992188 23.25 C 22.734375 22.875 22.632812 22.535156 22.632812 22.082031 C 22.632812 21.988281 22.632812 21.894531 22.632812 21.800781 C 22.636719 21.703125 22.636719 21.605469 22.636719 21.507812 C 22.636719 21.417969 22.636719 21.328125 22.636719 21.234375 C 22.640625 20.902344 22.640625 20.566406 22.644531 20.234375 C 22.648438 19.484375 22.652344 18.738281 22.65625 17.96875 C 20.59375 17.96875 18.53125 17.96875 16.40625 17.96875 C 16.4375 20.03125 16.46875 22.09375 16.503906 24.21875 C 16.957031 24.21875 17.40625 24.21875 17.871094 24.21875 C 18.136719 24.339844 18.398438 24.46875 18.652344 24.609375 C 18.917969 24.5625 18.917969 24.5625 19.140625 24.414062 C 19.78125 24.109375 20.550781 24.105469 21.234375 24.277344 C 21.75 24.507812 22.15625 24.917969 22.460938 25.390625 C 22.527344 25.660156 22.527344 25.660156 22.558594 25.878906 C 22.621094 25.847656 22.6875 25.8125 22.753906 25.78125 C 23.523438 25.71875 24.273438 25.667969 24.902344 26.171875 C 25.359375 26.605469 25.738281 27.035156 25.808594 27.683594 C 25.808594 27.769531 25.808594 27.855469 25.808594 27.941406 C 25.808594 28.089844 25.808594 28.089844 25.8125 28.242188 C 25.8125 28.347656 25.8125 28.457031 25.8125 28.566406 C 25.8125 28.679688 25.8125 28.796875 25.8125 28.914062 C 25.816406 29.289062 25.816406 29.667969 25.816406 30.042969 C 25.816406 30.175781 25.816406 30.304688 25.820312 30.433594 C 25.820312 31.121094 25.824219 31.804688 25.824219 32.488281 C 25.824219 33.121094 25.824219 33.757812 25.832031 34.390625 C 25.832031 34.9375 25.835938 35.484375 25.835938 36.03125 C 25.835938 36.359375 25.835938 36.683594 25.839844 37.007812 C 25.863281 40.167969 25.863281 40.167969 24.878906 41.472656 C 24.804688 41.578125 24.726562 41.679688 24.652344 41.785156 C 24.492188 41.988281 24.332031 42.1875 24.164062 42.382812 C 23.5625 43.113281 23.425781 43.582031 23.4375 44.53125 C 23.953125 44.53125 24.46875 44.53125 25 44.53125 C 25 46.078125 25 47.625 25 49.21875 C 19.328125 49.21875 13.65625 49.21875 7.8125 49.21875 C 7.8125 47.671875 7.8125 46.125 7.8125 44.53125 C 8.328125 44.53125 8.84375 44.53125 9.375 44.53125 C 9.351562 43.511719 9.191406 42.835938 8.703125 41.949219 C 8.585938 41.730469 8.472656 41.507812 8.355469 41.285156 C 8.269531 41.121094 8.269531 41.121094 8.179688 40.953125 C 7.914062 40.449219 7.671875 39.9375 7.429688 39.421875 C 7.363281 39.28125 7.363281 39.28125 7.292969 39.140625 C 7.210938 38.964844 7.128906 38.789062 7.046875 38.613281 C 6.945312 38.40625 6.847656 38.203125 6.746094 38 C 6.695312 37.890625 6.644531 37.785156 6.589844 37.675781 C 6.53125 37.550781 6.53125 37.550781 6.464844 37.421875 C 5.96875 36.113281 5.890625 34.703125 5.734375 33.324219 C 5.699219 33.023438 5.660156 32.71875 5.625 32.414062 C 5.613281 32.324219 5.605469 32.234375 5.59375 32.140625 C 5.484375 31.234375 5.222656 30.410156 4.6875 29.664062 C 4.585938 29.515625 4.585938 29.515625 4.484375 29.363281 C 4.378906 29.214844 4.269531 29.066406 4.160156 28.921875 C 3.773438 28.375 3.820312 27.6875 3.90625 27.050781 C 4.132812 26.441406 4.558594 26.03125 5.144531 25.757812 C 6.378906 25.476562 7.613281 25.839844 8.683594 26.457031 C 10.066406 27.390625 10.695312 28.683594 11.035156 30.273438 C 11.054688 30.371094 11.078125 30.46875 11.097656 30.566406 C 11.246094 31.25 11.386719 31.933594 11.523438 32.617188 C 11.597656 32.214844 11.632812 31.835938 11.636719 31.425781 C 11.636719 31.308594 11.636719 31.1875 11.640625 31.066406 C 11.640625 30.933594 11.640625 30.804688 11.640625 30.675781 C 11.640625 30.535156 11.644531 30.398438 11.644531 30.257812 C 11.648438 29.882812 11.648438 29.507812 11.652344 29.132812 C 11.652344 28.738281 11.65625 28.347656 11.65625 27.953125 C 11.664062 27.210938 11.667969 26.46875 11.671875 25.726562 C 11.675781 24.878906 11.683594 24.035156 11.6875 23.1875 C 11.699219 21.449219 11.707031 19.707031 11.71875 17.96875 C 11.628906 17.96875 11.542969 17.96875 11.453125 17.972656 C 10.617188 17.980469 9.785156 17.984375 8.953125 17.988281 C 8.523438 17.992188 8.097656 17.992188 7.667969 18 C 7.253906 18.003906 6.839844 18.003906 6.425781 18.003906 C 6.269531 18.007812 6.113281 18.007812 5.953125 18.011719 C 4.351562 18.03125 3.171875 17.679688 1.976562 16.570312 C 1.007812 15.546875 0.726562 14.417969 0.734375 13.046875 C 0.777344 11.632812 1.359375 10.605469 2.375 9.644531 C 3.078125 9.042969 3.945312 8.59375 4.882812 8.59375 C 4.902344 8.503906 4.902344 8.503906 4.921875 8.414062 C 5.105469 7.710938 5.414062 7.210938 5.859375 6.640625 C 5.902344 6.582031 5.941406 6.519531 5.984375 6.457031 C 6.675781 5.535156 7.960938 4.855469 9.082031 4.6875 C 10.882812 4.574219 10.882812 4.574219 11.621094 4.785156 C 11.644531 4.699219 11.671875 4.613281 11.695312 4.523438 C 12.25 3.023438 13.695312 1.964844 15.082031 1.292969 C 15.261719 1.21875 15.441406 1.144531 15.625 1.074219 C 15.707031 1.042969 15.789062 1.011719 15.871094 0.980469 C 17.964844 0.320312 20.492188 0.761719 22.234375 2.078125 Z M 26.875 17.164062 C 26.046875 17.71875 25.195312 17.890625 24.21875 17.96875 C 24.210938 18.515625 24.207031 19.058594 24.203125 19.605469 C 24.203125 19.789062 24.199219 19.976562 24.195312 20.160156 C 24.191406 20.429688 24.191406 20.695312 24.191406 20.964844 C 24.1875 21.046875 24.1875 21.128906 24.1875 21.214844 C 24.183594 21.699219 24.222656 22.050781 24.511719 22.460938 C 25.273438 22.800781 25.273438 22.800781 27.34375 22.65625 C 27.34375 20.753906 27.34375 18.851562 27.34375 16.894531 C 27.164062 16.894531 27.015625 17.0625 26.875 17.164062 Z M 26.875 17.164062 "/>
<path style=" stroke:none;fill-rule:nonzero;fill:rgb(93.72549%,81.176471%,70.196078%);fill-opacity:1;" d="M 14.0625 16.34375 C 14.363281 16.40625 14.53125 16.488281 14.742188 16.710938 C 14.976562 17.132812 14.90625 17.65625 14.898438 18.125 C 14.898438 18.25 14.898438 18.375 14.898438 18.503906 C 14.898438 18.84375 14.898438 19.1875 14.894531 19.527344 C 14.890625 19.882812 14.890625 20.242188 14.890625 20.597656 C 14.886719 21.273438 14.882812 21.953125 14.878906 22.628906 C 14.875 23.398438 14.871094 24.167969 14.867188 24.9375 C 14.863281 26.519531 14.855469 28.105469 14.84375 29.6875 C 15.359375 29.6875 15.875 29.6875 16.40625 29.6875 C 16.402344 29.445312 16.394531 29.207031 16.390625 28.957031 C 16.386719 28.722656 16.382812 28.488281 16.378906 28.253906 C 16.378906 28.089844 16.375 27.929688 16.371094 27.765625 C 16.363281 27.53125 16.359375 27.300781 16.359375 27.066406 C 16.355469 26.992188 16.355469 26.921875 16.351562 26.847656 C 16.351562 26.457031 16.390625 26.289062 16.636719 25.980469 C 16.894531 25.78125 16.894531 25.78125 17.1875 25.71875 C 17.589844 25.804688 17.714844 25.949219 17.96875 26.269531 C 18.011719 26.554688 18.027344 26.78125 18.015625 27.066406 C 18.015625 27.175781 18.015625 27.175781 18.015625 27.292969 C 18.011719 27.53125 18.003906 27.769531 18 28.007812 C 17.996094 28.171875 17.996094 28.332031 17.992188 28.496094 C 17.988281 28.894531 17.976562 29.289062 17.96875 29.6875 C 18.484375 29.6875 19 29.6875 19.53125 29.6875 C 19.523438 29.324219 19.523438 29.324219 19.515625 28.957031 C 19.511719 28.722656 19.507812 28.488281 19.503906 28.253906 C 19.503906 28.089844 19.5 27.929688 19.496094 27.765625 C 19.488281 27.53125 19.484375 27.300781 19.484375 27.066406 C 19.480469 26.992188 19.480469 26.921875 19.476562 26.847656 C 19.476562 26.457031 19.515625 26.289062 19.761719 25.980469 C 20.019531 25.78125 20.019531 25.78125 20.3125 25.71875 C 20.714844 25.804688 20.839844 25.949219 21.09375 26.269531 C 21.136719 26.554688 21.152344 26.78125 21.140625 27.066406 C 21.140625 27.175781 21.140625 27.175781 21.140625 27.292969 C 21.136719 27.53125 21.128906 27.769531 21.125 28.007812 C 21.121094 28.171875 21.121094 28.332031 21.117188 28.496094 C 21.113281 28.894531 21.101562 29.289062 21.09375 29.6875 C 21.609375 29.6875 22.125 29.6875 22.65625 29.6875 C 22.648438 29.496094 22.648438 29.496094 22.640625 29.296875 C 22.632812 29.128906 22.628906 28.960938 22.625 28.789062 C 22.621094 28.664062 22.621094 28.664062 22.613281 28.535156 C 22.605469 28.089844 22.609375 27.894531 22.882812 27.53125 C 23.144531 27.34375 23.144531 27.34375 23.4375 27.28125 C 23.847656 27.367188 23.96875 27.496094 24.21875 27.832031 C 24.292969 28.183594 24.285156 28.53125 24.28125 28.890625 C 24.28125 28.996094 24.285156 29.101562 24.285156 29.210938 C 24.285156 29.566406 24.285156 29.917969 24.285156 30.269531 C 24.285156 30.515625 24.285156 30.761719 24.285156 31.007812 C 24.285156 31.523438 24.285156 32.039062 24.28125 32.554688 C 24.28125 33.148438 24.28125 33.742188 24.285156 34.335938 C 24.285156 34.910156 24.285156 35.484375 24.285156 36.054688 C 24.285156 36.296875 24.285156 36.542969 24.285156 36.785156 C 24.292969 38.367188 24.25 39.625 23.261719 40.929688 C 23.21875 40.988281 23.175781 41.042969 23.132812 41.101562 C 22.9375 41.367188 22.742188 41.617188 22.519531 41.863281 C 21.738281 42.773438 21.949219 43.109375 21.875 44.53125 C 18.265625 44.53125 14.65625 44.53125 10.9375 44.53125 C 10.90625 43.917969 10.875 43.304688 10.839844 42.675781 C 10.675781 42.210938 10.523438 41.835938 10.296875 41.410156 C 10.242188 41.300781 10.1875 41.191406 10.128906 41.082031 C 9.957031 40.738281 9.777344 40.398438 9.601562 40.058594 C 9.484375 39.828125 9.367188 39.597656 9.25 39.371094 C 9.164062 39.203125 9.164062 39.203125 9.078125 39.03125 C 8.863281 38.609375 8.648438 38.1875 8.433594 37.761719 C 8.355469 37.605469 8.273438 37.449219 8.191406 37.292969 C 7.609375 36.1875 7.53125 35.007812 7.402344 33.78125 C 7.226562 31.480469 7.226562 31.480469 6.410156 29.359375 C 6.371094 29.292969 6.335938 29.230469 6.296875 29.167969 C 6.109375 28.84375 5.90625 28.542969 5.683594 28.242188 C 5.46875 27.929688 5.46875 27.929688 5.480469 27.648438 C 5.566406 27.441406 5.566406 27.441406 5.664062 27.34375 C 6.542969 27.214844 7.3125 27.5 8.039062 27.980469 C 9.011719 28.765625 9.285156 29.757812 9.507812 30.933594 C 9.585938 31.324219 9.664062 31.714844 9.746094 32.105469 C 9.808594 32.417969 9.875 32.726562 9.9375 33.039062 C 9.960938 33.152344 9.960938 33.152344 9.984375 33.269531 C 10.027344 33.492188 10.074219 33.714844 10.117188 33.933594 C 10.132812 34 10.144531 34.066406 10.160156 34.136719 C 10.230469 34.492188 10.253906 34.789062 10.253906 35.15625 C 10.898438 35.15625 11.542969 35.15625 12.207031 35.15625 C 12.304688 34.867188 12.304688 34.867188 12.402344 34.570312 C 12.542969 34.285156 12.695312 34.003906 12.847656 33.71875 C 13.234375 32.835938 13.210938 31.941406 13.207031 30.992188 C 13.207031 30.839844 13.207031 30.6875 13.207031 30.535156 C 13.207031 30.203125 13.207031 29.875 13.207031 29.546875 C 13.207031 29.027344 13.207031 28.507812 13.210938 27.988281 C 13.210938 26.511719 13.214844 25.035156 13.214844 23.558594 C 13.210938 22.742188 13.214844 21.925781 13.21875 21.109375 C 13.21875 20.59375 13.21875 20.074219 13.214844 19.558594 C 13.214844 19.238281 13.21875 18.917969 13.21875 18.597656 C 13.21875 18.449219 13.21875 18.296875 13.21875 18.148438 C 13.214844 17.945312 13.21875 17.742188 13.21875 17.539062 C 13.21875 17.425781 13.21875 17.3125 13.21875 17.195312 C 13.316406 16.714844 13.582031 16.445312 14.0625 16.34375 Z M 14.0625 16.34375 "/>
<path style=" stroke:none;fill-rule:nonzero;fill:rgb(89.411765%,90.588235%,92.156863%);fill-opacity:1;" d="M 21.65625 3.6875 C 22.660156 4.609375 23.382812 5.953125 23.457031 7.320312 C 23.460938 7.460938 23.464844 7.601562 23.46875 7.746094 C 23.46875 7.8125 23.472656 7.882812 23.472656 7.953125 C 23.472656 8.445312 23.472656 8.445312 23.3125 8.679688 C 23.125 8.800781 22.964844 8.859375 22.746094 8.917969 C 21.417969 9.335938 20.601562 10.191406 19.964844 11.402344 C 19.75 11.882812 19.617188 12.359375 19.566406 12.882812 C 19.550781 13.082031 19.550781 13.082031 19.53125 13.28125 C 20.046875 13.28125 20.5625 13.28125 21.09375 13.28125 C 21.09375 13.054688 21.09375 12.828125 21.09375 12.597656 C 21.351562 11.679688 21.9375 10.957031 22.738281 10.46875 C 23.484375 10.054688 24.292969 10.050781 25.109375 10.265625 C 26.054688 10.589844 26.667969 11.136719 27.148438 12.011719 C 27.476562 12.835938 27.457031 13.667969 27.136719 14.488281 C 26.664062 15.484375 26.109375 15.875 25.097656 16.308594 C 24.726562 16.433594 24.375 16.425781 23.992188 16.429688 C 23.90625 16.429688 23.824219 16.433594 23.738281 16.433594 C 22.871094 16.445312 22.003906 16.453125 21.136719 16.457031 C 20.726562 16.460938 20.316406 16.464844 19.902344 16.46875 C 19.40625 16.480469 18.910156 16.484375 18.414062 16.484375 C 18.222656 16.484375 18.035156 16.488281 17.84375 16.492188 C 17.582031 16.496094 17.316406 16.496094 17.050781 16.496094 C 16.972656 16.5 16.894531 16.5 16.8125 16.503906 C 16.585938 16.5 16.421875 16.488281 16.210938 16.40625 C 16.046875 16.21875 15.933594 16.035156 15.820312 15.816406 C 15.582031 15.359375 15.136719 15.152344 14.671875 14.996094 C 14.03125 14.839844 13.449219 14.875 12.875 15.203125 C 12.433594 15.523438 12.148438 15.921875 11.914062 16.40625 C 11 16.414062 10.085938 16.421875 9.171875 16.425781 C 8.746094 16.429688 8.320312 16.429688 7.898438 16.4375 C 7.488281 16.441406 7.078125 16.441406 6.667969 16.441406 C 6.511719 16.445312 6.355469 16.445312 6.199219 16.449219 C 5.367188 16.457031 4.636719 16.464844 3.90625 16.015625 C 3.789062 15.949219 3.789062 15.949219 3.671875 15.882812 C 2.972656 15.382812 2.574219 14.6875 2.34375 13.867188 C 2.257812 13.070312 2.3125 12.40625 2.734375 11.71875 C 2.777344 11.652344 2.816406 11.582031 2.859375 11.511719 C 3.308594 10.847656 3.988281 10.316406 4.785156 10.15625 C 5.796875 10.066406 6.675781 10.261719 7.507812 10.851562 C 8.015625 11.304688 8.460938 11.925781 8.59375 12.597656 C 8.59375 12.824219 8.59375 13.046875 8.59375 13.28125 C 9.109375 13.28125 9.625 13.28125 10.15625 13.28125 C 10.070312 11.945312 9.519531 10.6875 8.542969 9.753906 C 7.972656 9.320312 7.25 8.925781 6.542969 8.789062 C 6.75 7.964844 7.324219 7.320312 8.007812 6.835938 C 8.933594 6.289062 9.96875 6.035156 11.035156 6.296875 C 11.339844 6.394531 11.632812 6.507812 11.929688 6.632812 C 12.203125 6.757812 12.203125 6.757812 12.5 6.738281 C 12.527344 6.65625 12.558594 6.578125 12.585938 6.496094 C 13.214844 4.78125 14.101562 3.566406 15.765625 2.753906 C 17.785156 1.890625 19.957031 2.363281 21.65625 3.6875 Z M 21.65625 3.6875 "/>
<path style=" stroke:none;fill-rule:nonzero;fill:rgb(40.784314%,83.529412%,95.294118%);fill-opacity:1;" d="M 34.34375 36.65625 C 34.484375 36.65625 34.484375 36.65625 34.628906 36.65625 C 34.738281 36.65625 34.847656 36.65625 34.960938 36.65625 C 35.082031 36.65625 35.199219 36.65625 35.320312 36.660156 C 35.449219 36.65625 35.574219 36.65625 35.703125 36.65625 C 36.046875 36.65625 36.394531 36.65625 36.738281 36.660156 C 37.097656 36.660156 37.460938 36.660156 37.820312 36.660156 C 38.429688 36.660156 39.035156 36.664062 39.640625 36.664062 C 40.34375 36.667969 41.042969 36.671875 41.742188 36.667969 C 42.417969 36.667969 43.09375 36.671875 43.769531 36.671875 C 44.054688 36.671875 44.339844 36.671875 44.628906 36.671875 C 45.027344 36.671875 45.429688 36.675781 45.832031 36.679688 C 46.007812 36.675781 46.007812 36.675781 46.191406 36.675781 C 46.300781 36.679688 46.410156 36.679688 46.523438 36.679688 C 46.617188 36.679688 46.710938 36.679688 46.808594 36.679688 C 47.121094 36.726562 47.304688 36.828125 47.558594 37.011719 C 48.214844 38.320312 47.65625 39.941406 47.65625 41.40625 C 43.015625 41.40625 38.375 41.40625 33.59375 41.40625 C 33.59375 36.832031 33.59375 36.832031 34.34375 36.65625 Z M 34.34375 36.65625 "/>
<path style=" stroke:none;fill-rule:nonzero;fill:rgb(40.784314%,83.529412%,95.294118%);fill-opacity:1;" d="M 34.34375 19.46875 C 34.484375 19.46875 34.484375 19.46875 34.628906 19.46875 C 34.738281 19.46875 34.847656 19.46875 34.960938 19.46875 C 35.082031 19.46875 35.199219 19.46875 35.320312 19.472656 C 35.449219 19.46875 35.574219 19.46875 35.703125 19.46875 C 36.046875 19.46875 36.394531 19.46875 36.738281 19.472656 C 37.097656 19.472656 37.460938 19.472656 37.820312 19.472656 C 38.429688 19.472656 39.035156 19.476562 39.640625 19.476562 C 40.34375 19.480469 41.042969 19.484375 41.742188 19.480469 C 42.417969 19.480469 43.09375 19.484375 43.769531 19.484375 C 44.054688 19.484375 44.339844 19.484375 44.628906 19.484375 C 45.027344 19.484375 45.429688 19.488281 45.832031 19.492188 C 46.007812 19.488281 46.007812 19.488281 46.191406 19.488281 C 46.300781 19.492188 46.410156 19.492188 46.523438 19.492188 C 46.617188 19.492188 46.710938 19.492188 46.808594 19.492188 C 47.121094 19.539062 47.304688 19.640625 47.558594 19.824219 C 48.214844 21.132812 47.65625 22.753906 47.65625 24.21875 C 43.015625 24.21875 38.375 24.21875 33.59375 24.21875 C 33.59375 19.644531 33.59375 19.644531 34.34375 19.46875 Z M 34.34375 19.46875 "/>
<path style=" stroke:none;fill-rule:nonzero;fill:rgb(40.784314%,83.529412%,95.294118%);fill-opacity:1;" d="M 34.34375 2.28125 C 34.484375 2.28125 34.484375 2.28125 34.628906 2.28125 C 34.738281 2.28125 34.847656 2.28125 34.960938 2.28125 C 35.082031 2.28125 35.199219 2.28125 35.320312 2.285156 C 35.449219 2.28125 35.574219 2.28125 35.703125 2.28125 C 36.046875 2.28125 36.394531 2.28125 36.738281 2.285156 C 37.097656 2.285156 37.460938 2.285156 37.820312 2.285156 C 38.429688 2.285156 39.035156 2.289062 39.640625 2.289062 C 40.34375 2.292969 41.042969 2.296875 41.742188 2.292969 C 42.417969 2.292969 43.09375 2.296875 43.769531 2.296875 C 44.054688 2.296875 44.339844 2.296875 44.628906 2.296875 C 45.027344 2.296875 45.429688 2.300781 45.832031 2.304688 C 46.007812 2.300781 46.007812 2.300781 46.191406 2.300781 C 46.300781 2.304688 46.410156 2.304688 46.523438 2.304688 C 46.617188 2.304688 46.710938 2.304688 46.808594 2.304688 C 47.121094 2.351562 47.304688 2.453125 47.558594 2.636719 C 48.214844 3.945312 47.65625 5.566406 47.65625 7.03125 C 43.015625 7.03125 38.375 7.03125 33.59375 7.03125 C 33.59375 2.457031 33.59375 2.457031 34.34375 2.28125 Z M 34.34375 2.28125 "/>
<path style=" stroke:none;fill-rule:nonzero;fill:rgb(98.823529%,84.313725%,43.921569%);fill-opacity:1;" d="M 9.375 46.09375 C 14.015625 46.09375 18.65625 46.09375 23.4375 46.09375 C 23.4375 46.609375 23.4375 47.125 23.4375 47.65625 C 18.796875 47.65625 14.15625 47.65625 9.375 47.65625 C 9.375 47.140625 9.375 46.625 9.375 46.09375 Z M 9.375 46.09375 "/>
<path style=" stroke:none;fill-rule:nonzero;fill:rgb(79.607843%,81.568627%,84.705882%);fill-opacity:1;" d="M 33.59375 42.96875 C 38.234375 42.96875 42.875 42.96875 47.65625 42.96875 C 47.65625 44.097656 47.65625 44.097656 47.363281 44.433594 C 47.0625 44.535156 46.859375 44.542969 46.542969 44.546875 C 46.433594 44.546875 46.328125 44.546875 46.214844 44.546875 C 46.09375 44.546875 45.972656 44.546875 45.851562 44.546875 C 45.660156 44.546875 45.660156 44.546875 45.46875 44.546875 C 45.121094 44.550781 44.777344 44.550781 44.429688 44.550781 C 44.214844 44.550781 44 44.550781 43.78125 44.550781 C 43.105469 44.554688 42.429688 44.554688 41.753906 44.554688 C 40.972656 44.554688 40.191406 44.558594 39.410156 44.558594 C 38.808594 44.5625 38.203125 44.5625 37.601562 44.5625 C 37.242188 44.5625 36.878906 44.5625 36.519531 44.566406 C 36.117188 44.566406 35.714844 44.566406 35.3125 44.566406 C 35.195312 44.566406 35.074219 44.566406 34.953125 44.570312 C 34.789062 44.566406 34.789062 44.566406 34.621094 44.566406 C 34.476562 44.566406 34.476562 44.566406 34.332031 44.566406 C 34.035156 44.523438 33.90625 44.445312 33.691406 44.238281 C 33.59375 43.945312 33.59375 43.945312 33.59375 42.96875 Z M 33.59375 42.96875 "/>
<path style=" stroke:none;fill-rule:nonzero;fill:rgb(79.607843%,81.568627%,84.705882%);fill-opacity:1;" d="M 33.59375 25.78125 C 38.234375 25.78125 42.875 25.78125 47.65625 25.78125 C 47.65625 26.910156 47.65625 26.910156 47.363281 27.246094 C 47.0625 27.347656 46.859375 27.355469 46.542969 27.359375 C 46.433594 27.359375 46.328125 27.359375 46.214844 27.359375 C 46.09375 27.359375 45.972656 27.359375 45.851562 27.359375 C 45.660156 27.359375 45.660156 27.359375 45.46875 27.359375 C 45.121094 27.363281 44.777344 27.363281 44.429688 27.363281 C 44.214844 27.363281 44 27.363281 43.78125 27.363281 C 43.105469 27.367188 42.429688 27.367188 41.753906 27.367188 C 40.972656 27.367188 40.191406 27.371094 39.410156 27.371094 C 38.808594 27.375 38.203125 27.375 37.601562 27.375 C 37.242188 27.375 36.878906 27.375 36.519531 27.378906 C 36.117188 27.378906 35.714844 27.378906 35.3125 27.378906 C 35.195312 27.378906 35.074219 27.378906 34.953125 27.382812 C 34.789062 27.378906 34.789062 27.378906 34.621094 27.378906 C 34.476562 27.378906 34.476562 27.378906 34.332031 27.378906 C 34.035156 27.335938 33.90625 27.257812 33.691406 27.050781 C 33.59375 26.757812 33.59375 26.757812 33.59375 25.78125 Z M 33.59375 25.78125 "/>
<path style=" stroke:none;fill-rule:nonzero;fill:rgb(79.607843%,81.568627%,84.705882%);fill-opacity:1;" d="M 33.59375 8.59375 C 38.234375 8.59375 42.875 8.59375 47.65625 8.59375 C 47.65625 9.722656 47.65625 9.722656 47.363281 10.058594 C 47.0625 10.160156 46.859375 10.167969 46.542969 10.171875 C 46.433594 10.171875 46.328125 10.171875 46.214844 10.171875 C 46.09375 10.171875 45.972656 10.171875 45.851562 10.171875 C 45.660156 10.171875 45.660156 10.171875 45.46875 10.171875 C 45.121094 10.175781 44.777344 10.175781 44.429688 10.175781 C 44.214844 10.175781 44 10.175781 43.78125 10.175781 C 43.105469 10.179688 42.429688 10.179688 41.753906 10.179688 C 40.972656 10.179688 40.191406 10.183594 39.410156 10.183594 C 38.808594 10.1875 38.203125 10.1875 37.601562 10.1875 C 37.242188 10.1875 36.878906 10.1875 36.519531 10.191406 C 36.117188 10.191406 35.714844 10.191406 35.3125 10.191406 C 35.195312 10.191406 35.074219 10.191406 34.953125 10.195312 C 34.789062 10.191406 34.789062 10.191406 34.621094 10.191406 C 34.476562 10.191406 34.476562 10.191406 34.332031 10.191406 C 34.035156 10.148438 33.90625 10.070312 33.691406 9.863281 C 33.59375 9.570312 33.59375 9.570312 33.59375 8.59375 Z M 33.59375 8.59375 "/>
<path style=" stroke:none;fill-rule:nonzero;fill:rgb(1.176471%,1.176471%,1.176471%);fill-opacity:1;" d="M 17.96875 3.90625 C 19.210938 3.976562 20.175781 4.382812 21.019531 5.308594 C 21.636719 6.070312 21.875 6.839844 21.875 7.8125 C 21.359375 7.8125 20.84375 7.8125 20.3125 7.8125 C 20.292969 7.683594 20.273438 7.554688 20.25 7.421875 C 20.109375 6.789062 19.753906 6.386719 19.316406 5.925781 C 18.894531 5.671875 18.449219 5.585938 17.96875 5.46875 C 17.96875 4.953125 17.96875 4.4375 17.96875 3.90625 Z M 17.96875 3.90625 "/>
<path style=" stroke:none;fill-rule:nonzero;fill:rgb(58.823529%,62.352941%,66.666667%);fill-opacity:1;" d="M 38.28125 46.09375 C 39.828125 46.09375 41.375 46.09375 42.96875 46.09375 C 42.96875 46.609375 42.96875 47.125 42.96875 47.65625 C 41.421875 47.65625 39.875 47.65625 38.28125 47.65625 C 38.28125 47.140625 38.28125 46.625 38.28125 46.09375 Z M 38.28125 46.09375 "/>
<path style=" stroke:none;fill-rule:nonzero;fill:rgb(58.823529%,62.352941%,66.666667%);fill-opacity:1;" d="M 38.28125 28.90625 C 39.828125 28.90625 41.375 28.90625 42.96875 28.90625 C 42.96875 29.421875 42.96875 29.9375 42.96875 30.46875 C 41.421875 30.46875 39.875 30.46875 38.28125 30.46875 C 38.28125 29.953125 38.28125 29.4375 38.28125 28.90625 Z M 38.28125 28.90625 "/>
<path style=" stroke:none;fill-rule:nonzero;fill:rgb(58.823529%,62.352941%,66.666667%);fill-opacity:1;" d="M 38.28125 11.71875 C 39.828125 11.71875 41.375 11.71875 42.96875 11.71875 C 42.96875 12.234375 42.96875 12.75 42.96875 13.28125 C 41.421875 13.28125 39.875 13.28125 38.28125 13.28125 C 38.28125 12.765625 38.28125 12.25 38.28125 11.71875 Z M 38.28125 11.71875 "/>
</g>
</svg>
